<svg width="560" height="199" viewBox="0 0 560 199" fill="none" xmlns="http://www.w3.org/2000/svg">
<rect width="187" height="199" fill="#C4C4C4"/>
<rect width="187" height="199"/>
<path d="M229.604 25L229.578 11.74L223 22.79H221.804L215.226 11.818V25H212.73V6.8H214.862L222.454 19.592L229.942 6.8H232.074L232.1 25H229.604ZM242.216 11.09C244.123 11.09 245.579 11.558 246.584 12.494C247.607 13.43 248.118 14.8253 248.118 16.68V25H245.752V23.18C245.336 23.8213 244.738 24.3153 243.958 24.662C243.195 24.9913 242.285 25.156 241.228 25.156C239.685 25.156 238.446 24.7833 237.51 24.038C236.591 23.2927 236.132 22.3133 236.132 21.1C236.132 19.8867 236.574 18.916 237.458 18.188C238.342 17.4427 239.746 17.07 241.67 17.07H245.622V16.576C245.622 15.5013 245.31 14.678 244.686 14.106C244.062 13.534 243.143 13.248 241.93 13.248C241.115 13.248 240.318 13.3867 239.538 13.664C238.758 13.924 238.099 14.2793 237.562 14.73L236.522 12.858C237.233 12.286 238.082 11.8527 239.07 11.558C240.058 11.246 241.107 11.09 242.216 11.09ZM241.644 23.232C242.597 23.232 243.421 23.024 244.114 22.608C244.807 22.1747 245.31 21.568 245.622 20.788V18.864H241.774C239.659 18.864 238.602 19.5747 238.602 20.996C238.602 21.6893 238.871 22.2353 239.408 22.634C239.945 23.0327 240.691 23.232 241.644 23.232ZM250.969 30.2C250.362 30.2 249.799 30.1307 249.279 29.992C248.759 29.8533 248.326 29.6453 247.979 29.368L248.785 27.444C249.305 27.8773 249.981 28.094 250.813 28.094C251.472 28.094 251.974 27.886 252.321 27.47C252.685 27.0713 252.867 26.4733 252.867 25.676V11.22H255.363V25.624C255.363 27.0453 254.982 28.1633 254.219 28.978C253.456 29.7927 252.373 30.2 250.969 30.2ZM254.115 8.568C253.63 8.568 253.222 8.412 252.893 8.1C252.581 7.788 252.425 7.40667 252.425 6.956C252.425 6.50533 252.581 6.124 252.893 5.812C253.222 5.48267 253.63 5.318 254.115 5.318C254.6 5.318 254.999 5.474 255.311 5.786C255.64 6.08067 255.805 6.45333 255.805 6.904C255.805 7.372 255.64 7.77067 255.311 8.1C254.999 8.412 254.6 8.568 254.115 8.568ZM266.028 25.156C264.658 25.156 263.428 24.8527 262.336 24.246C261.244 23.6393 260.386 22.8073 259.762 21.75C259.155 20.6753 258.852 19.462 258.852 18.11C258.852 16.758 259.155 15.5533 259.762 14.496C260.386 13.4213 261.244 12.5893 262.336 12C263.428 11.3933 264.658 11.09 266.028 11.09C267.397 11.09 268.619 11.3933 269.694 12C270.786 12.5893 271.635 13.4213 272.242 14.496C272.866 15.5533 273.178 16.758 273.178 18.11C273.178 19.462 272.866 20.6753 272.242 21.75C271.635 22.8073 270.786 23.6393 269.694 24.246C268.619 24.8527 267.397 25.156 266.028 25.156ZM266.028 22.972C266.912 22.972 267.7 22.7727 268.394 22.374C269.104 21.958 269.659 21.386 270.058 20.658C270.456 19.9127 270.656 19.0633 270.656 18.11C270.656 17.1567 270.456 16.316 270.058 15.588C269.659 14.8427 269.104 14.2707 268.394 13.872C267.7 13.4733 266.912 13.274 266.028 13.274C265.144 13.274 264.346 13.4733 263.636 13.872C262.942 14.2707 262.388 14.8427 261.972 15.588C261.573 16.316 261.374 17.1567 261.374 18.11C261.374 19.0633 261.573 19.9127 261.972 20.658C262.388 21.386 262.942 21.958 263.636 22.374C264.346 22.7727 265.144 22.972 266.028 22.972ZM279.022 13.534C279.455 12.7367 280.096 12.13 280.946 11.714C281.795 11.298 282.826 11.09 284.04 11.09V13.508C283.901 13.4907 283.71 13.482 283.468 13.482C282.116 13.482 281.05 13.8893 280.27 14.704C279.507 15.5013 279.126 16.6453 279.126 18.136V25H276.63V11.22H279.022V13.534ZM292.472 18.578L289.612 21.23V25H287.116V5.708H289.612V18.084L297.126 11.22H300.142L294.344 16.914L300.714 25H297.646L292.472 18.578ZM307.902 11.09C309.808 11.09 311.264 11.558 312.27 12.494C313.292 13.43 313.804 14.8253 313.804 16.68V25H311.438V23.18C311.022 23.8213 310.424 24.3153 309.644 24.662C308.881 24.9913 307.971 25.156 306.914 25.156C305.371 25.156 304.132 24.7833 303.196 24.038C302.277 23.2927 301.818 22.3133 301.818 21.1C301.818 19.8867 302.26 18.916 303.144 18.188C304.028 17.4427 305.432 17.07 307.356 17.07H311.308V16.576C311.308 15.5013 310.996 14.678 310.372 14.106C309.748 13.534 308.829 13.248 307.616 13.248C306.801 13.248 306.004 13.3867 305.224 13.664C304.444 13.924 303.785 14.2793 303.248 14.73L302.208 12.858C302.918 12.286 303.768 11.8527 304.756 11.558C305.744 11.246 306.792 11.09 307.902 11.09ZM307.33 23.232C308.283 23.232 309.106 23.024 309.8 22.608C310.493 22.1747 310.996 21.568 311.308 20.788V18.864H307.46C305.345 18.864 304.288 19.5747 304.288 20.996C304.288 21.6893 304.556 22.2353 305.094 22.634C305.631 23.0327 306.376 23.232 307.33 23.232ZM332.711 11.09C334.046 11.09 335.242 11.3847 336.299 11.974C337.356 12.5633 338.18 13.3867 338.769 14.444C339.376 15.5013 339.679 16.7233 339.679 18.11C339.679 19.4967 339.376 20.7273 338.769 21.802C338.18 22.8593 337.356 23.6827 336.299 24.272C335.242 24.8613 334.046 25.156 332.711 25.156C331.688 25.156 330.752 24.9567 329.903 24.558C329.054 24.1593 328.352 23.5787 327.797 22.816V25H325.405V5.708H327.901V13.3C328.456 12.572 329.149 12.026 329.981 11.662C330.813 11.2807 331.723 11.09 332.711 11.09ZM332.503 22.972C333.387 22.972 334.176 22.7727 334.869 22.374C335.58 21.958 336.134 21.386 336.533 20.658C336.949 19.9127 337.157 19.0633 337.157 18.11C337.157 17.1567 336.949 16.316 336.533 15.588C336.134 14.8427 335.58 14.2707 334.869 13.872C334.176 13.4733 333.387 13.274 332.503 13.274C331.636 13.274 330.848 13.4733 330.137 13.872C329.426 14.2707 328.872 14.8427 328.473 15.588C328.074 16.316 327.875 17.1567 327.875 18.11C327.875 19.0633 328.074 19.9127 328.473 20.658C328.872 21.386 329.426 21.958 330.137 22.374C330.848 22.7727 331.636 22.972 332.503 22.972ZM355.582 18.188C355.582 18.3787 355.564 18.63 355.53 18.942H344.35C344.506 20.1553 345.034 21.1347 345.936 21.88C346.854 22.608 347.99 22.972 349.342 22.972C350.988 22.972 352.314 22.4173 353.32 21.308L354.698 22.92C354.074 23.648 353.294 24.2027 352.358 24.584C351.439 24.9653 350.408 25.156 349.264 25.156C347.808 25.156 346.516 24.8613 345.39 24.272C344.263 23.6653 343.388 22.8247 342.764 21.75C342.157 20.6753 341.854 19.462 341.854 18.11C341.854 16.7753 342.148 15.5707 342.738 14.496C343.344 13.4213 344.168 12.5893 345.208 12C346.265 11.3933 347.452 11.09 348.77 11.09C350.087 11.09 351.257 11.3933 352.28 12C353.32 12.5893 354.126 13.4213 354.698 14.496C355.287 15.5707 355.582 16.8013 355.582 18.188ZM348.77 13.196C347.574 13.196 346.568 13.56 345.754 14.288C344.956 15.016 344.488 15.9693 344.35 17.148H353.19C353.051 15.9867 352.574 15.042 351.76 14.314C350.962 13.5687 349.966 13.196 348.77 13.196ZM363.685 11.09C365.591 11.09 367.047 11.558 368.053 12.494C369.075 13.43 369.587 14.8253 369.587 16.68V25H367.221V23.18C366.805 23.8213 366.207 24.3153 365.427 24.662C364.664 24.9913 363.754 25.156 362.697 25.156C361.154 25.156 359.915 24.7833 358.979 24.038C358.06 23.2927 357.601 22.3133 357.601 21.1C357.601 19.8867 358.043 18.916 358.927 18.188C359.811 17.4427 361.215 17.07 363.139 17.07H367.091V16.576C367.091 15.5013 366.779 14.678 366.155 14.106C365.531 13.534 364.612 13.248 363.399 13.248C362.584 13.248 361.787 13.3867 361.007 13.664C360.227 13.924 359.568 14.2793 359.031 14.73L357.991 12.858C358.701 12.286 359.551 11.8527 360.539 11.558C361.527 11.246 362.575 11.09 363.685 11.09ZM363.113 23.232C364.066 23.232 364.889 23.024 365.583 22.608C366.276 22.1747 366.779 21.568 367.091 20.788V18.864H363.243C361.128 18.864 360.071 19.5747 360.071 20.996C360.071 21.6893 360.339 22.2353 360.877 22.634C361.414 23.0327 362.159 23.232 363.113 23.232ZM380.288 25.156C378.884 25.156 377.627 24.8527 376.518 24.246C375.426 23.6393 374.568 22.8073 373.944 21.75C373.32 20.6753 373.008 19.462 373.008 18.11C373.008 16.758 373.32 15.5533 373.944 14.496C374.568 13.4213 375.426 12.5893 376.518 12C377.627 11.3933 378.884 11.09 380.288 11.09C381.536 11.09 382.645 11.3413 383.616 11.844C384.604 12.3467 385.367 13.0747 385.904 14.028L384.006 15.25C383.573 14.5913 383.035 14.0973 382.394 13.768C381.753 13.4387 381.042 13.274 380.262 13.274C379.361 13.274 378.546 13.4733 377.818 13.872C377.107 14.2707 376.544 14.8427 376.128 15.588C375.729 16.316 375.53 17.1567 375.53 18.11C375.53 19.0807 375.729 19.9387 376.128 20.684C376.544 21.412 377.107 21.9753 377.818 22.374C378.546 22.7727 379.361 22.972 380.262 22.972C381.042 22.972 381.753 22.8073 382.394 22.478C383.035 22.1487 383.573 21.6547 384.006 20.996L385.904 22.192C385.367 23.1453 384.604 23.882 383.616 24.402C382.645 24.9047 381.536 25.156 380.288 25.156ZM396.316 11.09C398.066 11.09 399.453 11.6013 400.476 12.624C401.516 13.6293 402.036 15.1113 402.036 17.07V25H399.54V17.356C399.54 16.0213 399.219 15.016 398.578 14.34C397.936 13.664 397.018 13.326 395.822 13.326C394.47 13.326 393.404 13.7247 392.624 14.522C391.844 15.302 391.454 16.4287 391.454 17.902V25H388.958V5.708H391.454V13.17C391.974 12.5113 392.65 12 393.482 11.636C394.331 11.272 395.276 11.09 396.316 11.09Z" fill="#D3D3D3"/>
<path d="M221.84 192L218.64 187.5C218.28 187.54 217.907 187.56 217.52 187.56H213.76V192H212.28V178H217.52C219.307 178 220.707 178.427 221.72 179.28C222.733 180.133 223.24 181.307 223.24 182.8C223.24 183.893 222.96 184.82 222.4 185.58C221.853 186.327 221.067 186.867 220.04 187.2L223.46 192H221.84ZM217.48 186.3C218.867 186.3 219.927 185.993 220.66 185.38C221.393 184.767 221.76 183.907 221.76 182.8C221.76 181.667 221.393 180.8 220.66 180.2C219.927 179.587 218.867 179.28 217.48 179.28H213.76V186.3H217.48ZM235.593 187.18H226.793C226.873 188.273 227.293 189.16 228.053 189.84C228.813 190.507 229.773 190.84 230.933 190.84C231.586 190.84 232.186 190.727 232.733 190.5C233.28 190.26 233.753 189.913 234.153 189.46L234.953 190.38C234.486 190.94 233.9 191.367 233.193 191.66C232.5 191.953 231.733 192.1 230.893 192.1C229.813 192.1 228.853 191.873 228.013 191.42C227.186 190.953 226.54 190.313 226.073 189.5C225.606 188.687 225.373 187.767 225.373 186.74C225.373 185.713 225.593 184.793 226.033 183.98C226.486 183.167 227.1 182.533 227.873 182.08C228.66 181.627 229.54 181.4 230.513 181.4C231.486 181.4 232.36 181.627 233.133 182.08C233.906 182.533 234.513 183.167 234.953 183.98C235.393 184.78 235.613 185.7 235.613 186.74L235.593 187.18ZM230.513 182.62C229.5 182.62 228.646 182.947 227.953 183.6C227.273 184.24 226.886 185.08 226.793 186.12H234.253C234.16 185.08 233.766 184.24 233.073 183.6C232.393 182.947 231.54 182.62 230.513 182.62ZM241.89 181.4C243.264 181.4 244.317 181.747 245.05 182.44C245.784 183.12 246.15 184.133 246.15 185.48V192H244.79V190.36C244.47 190.907 243.997 191.333 243.37 191.64C242.757 191.947 242.024 192.1 241.17 192.1C239.997 192.1 239.064 191.82 238.37 191.26C237.677 190.7 237.33 189.96 237.33 189.04C237.33 188.147 237.65 187.427 238.29 186.88C238.944 186.333 239.977 186.06 241.39 186.06H244.73V185.42C244.73 184.513 244.477 183.827 243.97 183.36C243.464 182.88 242.724 182.64 241.75 182.64C241.084 182.64 240.444 182.753 239.83 182.98C239.217 183.193 238.69 183.493 238.25 183.88L237.61 182.82C238.144 182.367 238.784 182.02 239.53 181.78C240.277 181.527 241.064 181.4 241.89 181.4ZM241.39 190.98C242.19 190.98 242.877 190.8 243.45 190.44C244.024 190.067 244.45 189.533 244.73 188.84V187.12H241.43C239.63 187.12 238.73 187.747 238.73 189C238.73 189.613 238.964 190.1 239.43 190.46C239.897 190.807 240.55 190.98 241.39 190.98ZM259.646 177.16V192H258.286V189.92C257.86 190.627 257.293 191.167 256.586 191.54C255.893 191.913 255.106 192.1 254.226 192.1C253.24 192.1 252.346 191.873 251.546 191.42C250.746 190.967 250.12 190.333 249.666 189.52C249.213 188.707 248.986 187.78 248.986 186.74C248.986 185.7 249.213 184.773 249.666 183.96C250.12 183.147 250.746 182.52 251.546 182.08C252.346 181.627 253.24 181.4 254.226 181.4C255.08 181.4 255.846 181.58 256.526 181.94C257.22 182.287 257.786 182.8 258.226 183.48V177.16H259.646ZM254.346 190.84C255.08 190.84 255.74 190.673 256.326 190.34C256.926 189.993 257.393 189.507 257.726 188.88C258.073 188.253 258.246 187.54 258.246 186.74C258.246 185.94 258.073 185.227 257.726 184.6C257.393 183.973 256.926 183.493 256.326 183.16C255.74 182.813 255.08 182.64 254.346 182.64C253.6 182.64 252.926 182.813 252.326 183.16C251.74 183.493 251.273 183.973 250.926 184.6C250.593 185.227 250.426 185.94 250.426 186.74C250.426 187.54 250.593 188.253 250.926 188.88C251.273 189.507 251.74 189.993 252.326 190.34C252.926 190.673 253.6 190.84 254.346 190.84ZM281.955 181.4C283.275 181.4 284.309 181.78 285.055 182.54C285.815 183.3 286.195 184.42 286.195 185.9V192H284.775V186.04C284.775 184.947 284.509 184.113 283.975 183.54C283.455 182.967 282.715 182.68 281.755 182.68C280.662 182.68 279.802 183.02 279.175 183.7C278.549 184.367 278.235 185.293 278.235 186.48V192H276.815V186.04C276.815 184.947 276.549 184.113 276.015 183.54C275.495 182.967 274.749 182.68 273.775 182.68C272.695 182.68 271.835 183.02 271.195 183.7C270.569 184.367 270.255 185.293 270.255 186.48V192H268.835V181.48H270.195V183.4C270.569 182.76 271.089 182.267 271.755 181.92C272.422 181.573 273.189 181.4 274.055 181.4C274.935 181.4 275.695 181.587 276.335 181.96C276.989 182.333 277.475 182.887 277.795 183.62C278.182 182.927 278.735 182.387 279.455 182C280.189 181.6 281.022 181.4 281.955 181.4ZM294.385 192.1C293.372 192.1 292.459 191.873 291.645 191.42C290.832 190.953 290.192 190.313 289.725 189.5C289.259 188.687 289.025 187.767 289.025 186.74C289.025 185.713 289.259 184.793 289.725 183.98C290.192 183.167 290.832 182.533 291.645 182.08C292.459 181.627 293.372 181.4 294.385 181.4C295.399 181.4 296.312 181.627 297.125 182.08C297.939 182.533 298.572 183.167 299.025 183.98C299.492 184.793 299.725 185.713 299.725 186.74C299.725 187.767 299.492 188.687 299.025 189.5C298.572 190.313 297.939 190.953 297.125 191.42C296.312 191.873 295.399 192.1 294.385 192.1ZM294.385 190.84C295.132 190.84 295.799 190.673 296.385 190.34C296.985 189.993 297.452 189.507 297.785 188.88C298.119 188.253 298.285 187.54 298.285 186.74C298.285 185.94 298.119 185.227 297.785 184.6C297.452 183.973 296.985 183.493 296.385 183.16C295.799 182.813 295.132 182.64 294.385 182.64C293.639 182.64 292.965 182.813 292.365 183.16C291.779 183.493 291.312 183.973 290.965 184.6C290.632 185.227 290.465 185.94 290.465 186.74C290.465 187.54 290.632 188.253 290.965 188.88C291.312 189.507 291.779 189.993 292.365 190.34C292.965 190.673 293.639 190.84 294.385 190.84ZM303.985 183.54C304.318 182.833 304.811 182.3 305.465 181.94C306.131 181.58 306.951 181.4 307.925 181.4V182.78L307.585 182.76C306.478 182.76 305.611 183.1 304.985 183.78C304.358 184.46 304.045 185.413 304.045 186.64V192H302.625V181.48H303.985V183.54ZM319.558 187.18H310.758C310.838 188.273 311.258 189.16 312.018 189.84C312.778 190.507 313.738 190.84 314.898 190.84C315.551 190.84 316.151 190.727 316.698 190.5C317.245 190.26 317.718 189.913 318.118 189.46L318.918 190.38C318.451 190.94 317.865 191.367 317.158 191.66C316.465 191.953 315.698 192.1 314.858 192.1C313.778 192.1 312.818 191.873 311.978 191.42C311.151 190.953 310.505 190.313 310.038 189.5C309.571 188.687 309.338 187.767 309.338 186.74C309.338 185.713 309.558 184.793 309.998 183.98C310.451 183.167 311.065 182.533 311.838 182.08C312.625 181.627 313.505 181.4 314.478 181.4C315.451 181.4 316.325 181.627 317.098 182.08C317.871 182.533 318.478 183.167 318.918 183.98C319.358 184.78 319.578 185.7 319.578 186.74L319.558 187.18ZM314.478 182.62C313.465 182.62 312.611 182.947 311.918 183.6C311.238 184.24 310.851 185.08 310.758 186.12H318.218C318.125 185.08 317.731 184.24 317.038 183.6C316.358 182.947 315.505 182.62 314.478 182.62Z" fill="#D3D3D3"/>
<path fill-rule="evenodd" clip-rule="evenodd" d="M332.764 185.5L327 180.056L328.118 179L335 185.5L328.118 192L327 190.944L332.764 185.5Z" fill="#F2F2F2"/>
<path d="M217.52 68C219.307 68 220.707 68.4267 221.72 69.28C222.733 70.1333 223.24 71.3067 223.24 72.8C223.24 74.2933 222.733 75.4667 221.72 76.32C220.707 77.16 219.307 77.58 217.52 77.58H213.76V82H212.28V68H217.52ZM217.48 76.28C218.867 76.28 219.927 75.98 220.66 75.38C221.393 74.7667 221.76 73.9067 221.76 72.8C221.76 71.6667 221.393 70.8 220.66 70.2C219.927 69.5867 218.867 69.28 217.48 69.28H213.76V76.28H217.48ZM230.382 82.1C229.368 82.1 228.455 81.8733 227.642 81.42C226.828 80.9533 226.188 80.3133 225.722 79.5C225.255 78.6867 225.022 77.7667 225.022 76.74C225.022 75.7133 225.255 74.7933 225.722 73.98C226.188 73.1667 226.828 72.5333 227.642 72.08C228.455 71.6267 229.368 71.4 230.382 71.4C231.395 71.4 232.308 71.6267 233.122 72.08C233.935 72.5333 234.568 73.1667 235.022 73.98C235.488 74.7933 235.722 75.7133 235.722 76.74C235.722 77.7667 235.488 78.6867 235.022 79.5C234.568 80.3133 233.935 80.9533 233.122 81.42C232.308 81.8733 231.395 82.1 230.382 82.1ZM230.382 80.84C231.128 80.84 231.795 80.6733 232.382 80.34C232.982 79.9933 233.448 79.5067 233.782 78.88C234.115 78.2533 234.282 77.54 234.282 76.74C234.282 75.94 234.115 75.2267 233.782 74.6C233.448 73.9733 232.982 73.4933 232.382 73.16C231.795 72.8133 231.128 72.64 230.382 72.64C229.635 72.64 228.962 72.8133 228.362 73.16C227.775 73.4933 227.308 73.9733 226.962 74.6C226.628 75.2267 226.462 75.94 226.462 76.74C226.462 77.54 226.628 78.2533 226.962 78.88C227.308 79.5067 227.775 79.9933 228.362 80.34C228.962 80.6733 229.635 80.84 230.382 80.84ZM238.621 67.16H240.041V82H238.621V67.16ZM243.992 67.16H245.412V82H243.992V67.16ZM258.843 71.48V82H257.483V80.08C257.109 80.72 256.596 81.22 255.943 81.58C255.289 81.9267 254.543 82.1 253.703 82.1C252.329 82.1 251.243 81.72 250.443 80.96C249.656 80.1867 249.263 79.06 249.263 77.58V71.48H250.683V77.44C250.683 78.5467 250.956 79.3867 251.503 79.96C252.049 80.5333 252.829 80.82 253.843 80.82C254.949 80.82 255.823 80.4867 256.463 79.82C257.103 79.14 257.423 78.2 257.423 77V71.48H258.843ZM268.36 81.36C268.093 81.6 267.76 81.7867 267.36 81.92C266.973 82.04 266.567 82.1 266.14 82.1C265.153 82.1 264.393 81.8333 263.86 81.3C263.327 80.7667 263.06 80.0133 263.06 79.04V72.68H261.18V71.48H263.06V69.18H264.48V71.48H267.68V72.68H264.48V78.96C264.48 79.5867 264.633 80.0667 264.94 80.4C265.26 80.72 265.713 80.88 266.3 80.88C266.593 80.88 266.873 80.8333 267.14 80.74C267.42 80.6467 267.66 80.5133 267.86 80.34L268.36 81.36ZM270.945 71.48H272.365V82H270.945V71.48ZM271.665 69.18C271.372 69.18 271.125 69.08 270.925 68.88C270.725 68.68 270.625 68.44 270.625 68.16C270.625 67.8933 270.725 67.66 270.925 67.46C271.125 67.26 271.372 67.16 271.665 67.16C271.958 67.16 272.205 67.26 272.405 67.46C272.605 67.6467 272.705 67.8733 272.705 68.14C272.705 68.4333 272.605 68.68 272.405 68.88C272.205 69.08 271.958 69.18 271.665 69.18ZM280.616 82.1C279.603 82.1 278.689 81.8733 277.876 81.42C277.063 80.9533 276.423 80.3133 275.956 79.5C275.489 78.6867 275.256 77.7667 275.256 76.74C275.256 75.7133 275.489 74.7933 275.956 73.98C276.423 73.1667 277.063 72.5333 277.876 72.08C278.689 71.6267 279.603 71.4 280.616 71.4C281.629 71.4 282.543 71.6267 283.356 72.08C284.169 72.5333 284.803 73.1667 285.256 73.98C285.723 74.7933 285.956 75.7133 285.956 76.74C285.956 77.7667 285.723 78.6867 285.256 79.5C284.803 80.3133 284.169 80.9533 283.356 81.42C282.543 81.8733 281.629 82.1 280.616 82.1ZM280.616 80.84C281.363 80.84 282.029 80.6733 282.616 80.34C283.216 79.9933 283.683 79.5067 284.016 78.88C284.349 78.2533 284.516 77.54 284.516 76.74C284.516 75.94 284.349 75.2267 284.016 74.6C283.683 73.9733 283.216 73.4933 282.616 73.16C282.029 72.8133 281.363 72.64 280.616 72.64C279.869 72.64 279.196 72.8133 278.596 73.16C278.009 73.4933 277.543 73.9733 277.196 74.6C276.863 75.2267 276.696 75.94 276.696 76.74C276.696 77.54 276.863 78.2533 277.196 78.88C277.543 79.5067 278.009 79.9933 278.596 80.34C279.196 80.6733 279.869 80.84 280.616 80.84ZM294.215 71.4C295.535 71.4 296.582 71.7867 297.355 72.56C298.142 73.32 298.535 74.4333 298.535 75.9V82H297.115V76.04C297.115 74.9467 296.842 74.1133 296.295 73.54C295.748 72.9667 294.968 72.68 293.955 72.68C292.822 72.68 291.922 73.02 291.255 73.7C290.602 74.3667 290.275 75.2933 290.275 76.48V82H288.855V71.48H290.215V73.42C290.602 72.78 291.135 72.2867 291.815 71.94C292.508 71.58 293.308 71.4 294.215 71.4ZM308.985 73.54C309.318 72.8333 309.811 72.3 310.465 71.94C311.131 71.58 311.951 71.4 312.925 71.4V72.78L312.585 72.76C311.478 72.76 310.611 73.1 309.985 73.78C309.358 74.46 309.045 75.4133 309.045 76.64V82H307.625V71.48H308.985V73.54ZM319.156 71.4C320.529 71.4 321.583 71.7467 322.316 72.44C323.049 73.12 323.416 74.1333 323.416 75.48V82H322.056V80.36C321.736 80.9067 321.263 81.3333 320.636 81.64C320.023 81.9467 319.289 82.1 318.436 82.1C317.263 82.1 316.329 81.82 315.636 81.26C314.943 80.7 314.596 79.96 314.596 79.04C314.596 78.1467 314.916 77.4267 315.556 76.88C316.209 76.3333 317.243 76.06 318.656 76.06H321.996V75.42C321.996 74.5133 321.743 73.8267 321.236 73.36C320.729 72.88 319.989 72.64 319.016 72.64C318.349 72.64 317.709 72.7533 317.096 72.98C316.483 73.1933 315.956 73.4933 315.516 73.88L314.876 72.82C315.409 72.3667 316.049 72.02 316.796 71.78C317.543 71.5267 318.329 71.4 319.156 71.4ZM318.656 80.98C319.456 80.98 320.143 80.8 320.716 80.44C321.289 80.0667 321.716 79.5333 321.996 78.84V77.12H318.696C316.896 77.12 315.996 77.7467 315.996 79C315.996 79.6133 316.229 80.1 316.696 80.46C317.163 80.8067 317.816 80.98 318.656 80.98ZM332.813 81.36C332.546 81.6 332.213 81.7867 331.813 81.92C331.426 82.04 331.02 82.1 330.593 82.1C329.606 82.1 328.846 81.8333 328.313 81.3C327.78 80.7667 327.513 80.0133 327.513 79.04V72.68H325.633V71.48H327.513V69.18H328.933V71.48H332.133V72.68H328.933V78.96C328.933 79.5867 329.086 80.0667 329.393 80.4C329.713 80.72 330.166 80.88 330.753 80.88C331.046 80.88 331.326 80.8333 331.593 80.74C331.873 80.6467 332.113 80.5133 332.313 80.34L332.813 81.36ZM335.398 71.48H336.818V82H335.398V71.48ZM336.118 69.18C335.825 69.18 335.578 69.08 335.378 68.88C335.178 68.68 335.078 68.44 335.078 68.16C335.078 67.8933 335.178 67.66 335.378 67.46C335.578 67.26 335.825 67.16 336.118 67.16C336.411 67.16 336.658 67.26 336.858 67.46C337.058 67.6467 337.158 67.8733 337.158 68.14C337.158 68.4333 337.058 68.68 336.858 68.88C336.658 69.08 336.411 69.18 336.118 69.18ZM346.129 71.4C347.449 71.4 348.496 71.7867 349.269 72.56C350.056 73.32 350.449 74.4333 350.449 75.9V82H349.029V76.04C349.029 74.9467 348.756 74.1133 348.209 73.54C347.662 72.9667 346.882 72.68 345.869 72.68C344.736 72.68 343.836 73.02 343.169 73.7C342.516 74.3667 342.189 75.2933 342.189 76.48V82H340.769V71.48H342.129V73.42C342.516 72.78 343.049 72.2867 343.729 71.94C344.422 71.58 345.222 71.4 346.129 71.4ZM364.083 71.48V80.72C364.083 82.5067 363.643 83.8267 362.763 84.68C361.897 85.5467 360.583 85.98 358.823 85.98C357.85 85.98 356.923 85.8333 356.043 85.54C355.177 85.26 354.47 84.8667 353.923 84.36L354.643 83.28C355.15 83.7333 355.763 84.0867 356.483 84.34C357.217 84.5933 357.983 84.72 358.783 84.72C360.117 84.72 361.097 84.4067 361.723 83.78C362.35 83.1667 362.663 82.2067 362.663 80.9V79.56C362.223 80.2267 361.643 80.7333 360.923 81.08C360.217 81.4267 359.43 81.6 358.563 81.6C357.577 81.6 356.677 81.3867 355.863 80.96C355.063 80.52 354.43 79.9133 353.963 79.14C353.51 78.3533 353.283 77.4667 353.283 76.48C353.283 75.4933 353.51 74.6133 353.963 73.84C354.43 73.0667 355.063 72.4667 355.863 72.04C356.663 71.6133 357.563 71.4 358.563 71.4C359.457 71.4 360.263 71.58 360.983 71.94C361.703 72.3 362.283 72.82 362.723 73.5V71.48H364.083ZM358.703 80.34C359.463 80.34 360.15 80.18 360.763 79.86C361.377 79.5267 361.85 79.0667 362.183 78.48C362.53 77.8933 362.703 77.2267 362.703 76.48C362.703 75.7333 362.53 75.0733 362.183 74.5C361.85 73.9133 361.377 73.46 360.763 73.14C360.163 72.8067 359.477 72.64 358.703 72.64C357.943 72.64 357.257 72.8 356.643 73.12C356.043 73.44 355.57 73.8933 355.223 74.48C354.89 75.0667 354.723 75.7333 354.723 76.48C354.723 77.2267 354.89 77.8933 355.223 78.48C355.57 79.0667 356.043 79.5267 356.643 79.86C357.257 80.18 357.943 80.34 358.703 80.34ZM368.194 73.58C367.901 73.58 367.648 73.4733 367.434 73.26C367.234 73.0467 367.134 72.7867 367.134 72.48C367.134 72.1733 367.234 71.92 367.434 71.72C367.648 71.5067 367.901 71.4 368.194 71.4C368.488 71.4 368.741 71.5067 368.954 71.72C369.168 71.92 369.274 72.1733 369.274 72.48C369.274 72.7867 369.168 73.0467 368.954 73.26C368.741 73.4733 368.488 73.58 368.194 73.58ZM368.194 82.1C367.901 82.1 367.648 81.9933 367.434 81.78C367.234 81.5667 367.134 81.3067 367.134 81C367.134 80.6933 367.234 80.44 367.434 80.24C367.648 80.0267 367.901 79.92 368.194 79.92C368.488 79.92 368.741 80.0267 368.954 80.24C369.168 80.44 369.274 80.6933 369.274 81C369.274 81.3067 369.168 81.5667 368.954 81.78C368.741 81.9933 368.488 82.1 368.194 82.1ZM388.487 78.32H385.687V82H384.247V78.32H376.347V77.28L383.767 68H385.367L378.207 77.04H384.287V73.8H385.687V77.04H388.487V78.32ZM391.28 82.1C390.987 82.1 390.733 81.9933 390.52 81.78C390.32 81.5667 390.22 81.3067 390.22 81C390.22 80.6933 390.32 80.44 390.52 80.24C390.733 80.0267 390.987 79.92 391.28 79.92C391.573 79.92 391.827 80.0267 392.04 80.24C392.253 80.44 392.36 80.6933 392.36 81C392.36 81.3067 392.253 81.5667 392.04 81.78C391.827 81.9933 391.573 82.1 391.28 82.1ZM398.084 68V82H396.644V69.28H393.344V68H398.084Z" fill="#F2F2F2"/>
<path d="M216 40.28H211.08V39H222.4V40.28H217.48V53H216V40.28ZM225.551 44.54C225.884 43.8333 226.378 43.3 227.031 42.94C227.698 42.58 228.518 42.4 229.491 42.4V43.78L229.151 43.76C228.044 43.76 227.178 44.1 226.551 44.78C225.924 45.46 225.611 46.4133 225.611 47.64V53H224.191V42.48H225.551V44.54ZM235.723 42.4C237.096 42.4 238.149 42.7467 238.883 43.44C239.616 44.12 239.983 45.1333 239.983 46.48V53H238.623V51.36C238.303 51.9067 237.829 52.3333 237.203 52.64C236.589 52.9467 235.856 53.1 235.003 53.1C233.829 53.1 232.896 52.82 232.203 52.26C231.509 51.7 231.163 50.96 231.163 50.04C231.163 49.1467 231.483 48.4267 232.123 47.88C232.776 47.3333 233.809 47.06 235.223 47.06H238.563V46.42C238.563 45.5133 238.309 44.8267 237.803 44.36C237.296 43.88 236.556 43.64 235.583 43.64C234.916 43.64 234.276 43.7533 233.663 43.98C233.049 44.1933 232.523 44.4933 232.083 44.88L231.443 43.82C231.976 43.3667 232.616 43.02 233.363 42.78C234.109 42.5267 234.896 42.4 235.723 42.4ZM235.223 51.98C236.023 51.98 236.709 51.8 237.283 51.44C237.856 51.0667 238.283 50.5333 238.563 49.84V48.12H235.263C233.463 48.12 232.562 48.7467 232.562 50C232.562 50.6133 232.796 51.1 233.263 51.46C233.729 51.8067 234.383 51.98 235.223 51.98ZM246.659 53.1C245.806 53.1 244.986 52.98 244.199 52.74C243.426 52.4867 242.819 52.1733 242.379 51.8L243.019 50.68C243.459 51.0267 244.013 51.3133 244.679 51.54C245.346 51.7533 246.039 51.86 246.759 51.86C247.719 51.86 248.426 51.7133 248.879 51.42C249.346 51.1133 249.579 50.6867 249.579 50.14C249.579 49.7533 249.453 49.4533 249.199 49.24C248.946 49.0133 248.626 48.8467 248.239 48.74C247.853 48.62 247.339 48.5067 246.699 48.4C245.846 48.24 245.159 48.08 244.639 47.92C244.119 47.7467 243.673 47.46 243.299 47.06C242.939 46.66 242.759 46.1067 242.759 45.4C242.759 44.52 243.126 43.8 243.859 43.24C244.593 42.68 245.613 42.4 246.919 42.4C247.599 42.4 248.279 42.4933 248.959 42.68C249.639 42.8533 250.199 43.0867 250.639 43.38L250.019 44.52C249.153 43.92 248.119 43.62 246.919 43.62C246.013 43.62 245.326 43.78 244.859 44.1C244.406 44.42 244.179 44.84 244.179 45.36C244.179 45.76 244.306 46.08 244.559 46.32C244.826 46.56 245.153 46.74 245.539 46.86C245.926 46.9667 246.459 47.08 247.139 47.2C247.979 47.36 248.653 47.52 249.159 47.68C249.666 47.84 250.099 48.1133 250.459 48.5C250.819 48.8867 250.999 49.42 250.999 50.1C250.999 51.02 250.613 51.7533 249.839 52.3C249.079 52.8333 248.019 53.1 246.659 53.1ZM258.985 42.4C260.305 42.4 261.351 42.7867 262.125 43.56C262.911 44.32 263.305 45.4333 263.305 46.9V53H261.885V47.04C261.885 45.9467 261.611 45.1133 261.065 44.54C260.518 43.9667 259.738 43.68 258.725 43.68C257.591 43.68 256.691 44.02 256.025 44.7C255.371 45.3667 255.045 46.2933 255.045 47.48V53H253.625V38.16H255.045V44.32C255.431 43.7067 255.965 43.2333 256.645 42.9C257.325 42.5667 258.105 42.4 258.985 42.4ZM276.514 36.16H277.814L271.214 55H269.914L276.514 36.16ZM293.448 45.78C294.368 45.98 295.074 46.38 295.568 46.98C296.074 47.5667 296.328 48.3267 296.328 49.26C296.328 50.46 295.881 51.3867 294.988 52.04C294.108 52.68 292.801 53 291.068 53H284.628V39H290.668C292.228 39 293.434 39.3133 294.288 39.94C295.154 40.5667 295.588 41.4533 295.588 42.6C295.588 43.3733 295.394 44.0333 295.008 44.58C294.634 45.1133 294.114 45.5133 293.448 45.78ZM286.108 40.22V45.3H290.568C291.701 45.3 292.574 45.0867 293.188 44.66C293.801 44.22 294.108 43.5867 294.108 42.76C294.108 41.9333 293.801 41.3067 293.188 40.88C292.574 40.44 291.701 40.22 290.568 40.22H286.108ZM291.048 51.78C292.301 51.78 293.248 51.5667 293.888 51.14C294.528 50.7133 294.848 50.0467 294.848 49.14C294.848 47.3933 293.581 46.52 291.048 46.52H286.108V51.78H291.048ZM308.566 48.18H299.766C299.846 49.2733 300.266 50.16 301.026 50.84C301.786 51.5067 302.746 51.84 303.906 51.84C304.559 51.84 305.159 51.7267 305.706 51.5C306.252 51.26 306.726 50.9133 307.126 50.46L307.926 51.38C307.459 51.94 306.872 52.3667 306.166 52.66C305.472 52.9533 304.706 53.1 303.866 53.1C302.786 53.1 301.826 52.8733 300.986 52.42C300.159 51.9533 299.512 51.3133 299.046 50.5C298.579 49.6867 298.346 48.7667 298.346 47.74C298.346 46.7133 298.566 45.7933 299.006 44.98C299.459 44.1667 300.072 43.5333 300.846 43.08C301.632 42.6267 302.512 42.4 303.486 42.4C304.459 42.4 305.332 42.6267 306.106 43.08C306.879 43.5333 307.486 44.1667 307.926 44.98C308.366 45.78 308.586 46.7 308.586 47.74L308.566 48.18ZM303.486 43.62C302.472 43.62 301.619 43.9467 300.926 44.6C300.246 45.24 299.859 46.08 299.766 47.12H307.226C307.132 46.08 306.739 45.24 306.046 44.6C305.366 43.9467 304.512 43.62 303.486 43.62ZM314.863 42.4C316.236 42.4 317.29 42.7467 318.023 43.44C318.756 44.12 319.123 45.1333 319.123 46.48V53H317.763V51.36C317.443 51.9067 316.97 52.3333 316.343 52.64C315.73 52.9467 314.996 53.1 314.143 53.1C312.97 53.1 312.036 52.82 311.343 52.26C310.65 51.7 310.303 50.96 310.303 50.04C310.303 49.1467 310.623 48.4267 311.263 47.88C311.916 47.3333 312.95 47.06 314.363 47.06H317.703V46.42C317.703 45.5133 317.45 44.8267 316.943 44.36C316.436 43.88 315.696 43.64 314.723 43.64C314.056 43.64 313.416 43.7533 312.803 43.98C312.19 44.1933 311.663 44.4933 311.223 44.88L310.583 43.82C311.116 43.3667 311.756 43.02 312.503 42.78C313.25 42.5267 314.036 42.4 314.863 42.4ZM314.363 51.98C315.163 51.98 315.85 51.8 316.423 51.44C316.996 51.0667 317.423 50.5333 317.703 49.84V48.12H314.403C312.603 48.12 311.703 48.7467 311.703 50C311.703 50.6133 311.936 51.1 312.403 51.46C312.87 51.8067 313.523 51.98 314.363 51.98ZM327.379 53.1C326.339 53.1 325.406 52.8733 324.579 52.42C323.766 51.9667 323.126 51.3333 322.659 50.52C322.192 49.6933 321.959 48.7667 321.959 47.74C321.959 46.7133 322.192 45.7933 322.659 44.98C323.126 44.1667 323.766 43.5333 324.579 43.08C325.406 42.6267 326.339 42.4 327.379 42.4C328.286 42.4 329.092 42.58 329.799 42.94C330.519 43.2867 331.086 43.8 331.499 44.48L330.439 45.2C330.092 44.68 329.652 44.2933 329.119 44.04C328.586 43.7733 328.006 43.64 327.379 43.64C326.619 43.64 325.932 43.8133 325.319 44.16C324.719 44.4933 324.246 44.9733 323.899 45.6C323.566 46.2267 323.399 46.94 323.399 47.74C323.399 48.5533 323.566 49.2733 323.899 49.9C324.246 50.5133 324.719 50.9933 325.319 51.34C325.932 51.6733 326.619 51.84 327.379 51.84C328.006 51.84 328.586 51.7133 329.119 51.46C329.652 51.2067 330.092 50.82 330.439 50.3L331.499 51.02C331.086 51.7 330.519 52.22 329.799 52.58C329.079 52.9267 328.272 53.1 327.379 53.1ZM339.492 42.4C340.812 42.4 341.859 42.7867 342.632 43.56C343.419 44.32 343.812 45.4333 343.812 46.9V53H342.392V47.04C342.392 45.9467 342.119 45.1133 341.572 44.54C341.026 43.9667 340.246 43.68 339.232 43.68C338.099 43.68 337.199 44.02 336.532 44.7C335.879 45.3667 335.552 46.2933 335.552 47.48V53H334.132V38.16H335.552V44.32C335.939 43.7067 336.472 43.2333 337.152 42.9C337.832 42.5667 338.612 42.4 339.492 42.4ZM387.694 51.72V53H377.874V51.98L383.694 46.28C384.427 45.56 384.92 44.94 385.174 44.42C385.44 43.8867 385.574 43.3533 385.574 42.82C385.574 41.9933 385.287 41.3533 384.714 40.9C384.154 40.4333 383.347 40.2 382.294 40.2C380.654 40.2 379.38 40.72 378.474 41.76L377.454 40.88C378 40.24 378.694 39.7467 379.534 39.4C380.387 39.0533 381.347 38.88 382.414 38.88C383.84 38.88 384.967 39.22 385.794 39.9C386.634 40.5667 387.054 41.4867 387.054 42.66C387.054 43.38 386.894 44.0733 386.574 44.74C386.254 45.4067 385.647 46.1733 384.754 47.04L379.994 51.72H387.694ZM393.181 44.74C395.208 44.74 396.681 45.1067 397.601 45.84C398.534 46.56 399.001 47.5733 399.001 48.88C399.001 49.6933 398.808 50.42 398.421 51.06C398.048 51.7 397.481 52.2067 396.721 52.58C395.961 52.94 395.028 53.12 393.921 53.12C392.921 53.12 391.968 52.96 391.061 52.64C390.168 52.3067 389.448 51.8667 388.901 51.32L389.601 50.18C390.068 50.66 390.681 51.0533 391.441 51.36C392.201 51.6533 393.021 51.8 393.901 51.8C395.061 51.8 395.954 51.54 396.581 51.02C397.221 50.5 397.541 49.8067 397.541 48.94C397.541 47.98 397.181 47.2533 396.461 46.76C395.754 46.2667 394.554 46.02 392.861 46.02H389.881L390.601 39H398.261V40.28H391.861L391.381 44.74H393.181ZM401.909 53.1C401.616 53.1 401.362 52.9933 401.149 52.78C400.949 52.5667 400.849 52.3067 400.849 52C400.849 51.6933 400.949 51.44 401.149 51.24C401.362 51.0267 401.616 50.92 401.909 50.92C402.202 50.92 402.456 51.0267 402.669 51.24C402.882 51.44 402.989 51.6933 402.989 52C402.989 52.3067 402.882 52.5667 402.669 52.78C402.456 52.9933 402.202 53.1 401.909 53.1ZM410.433 53.12C409.353 53.12 408.386 52.8333 407.533 52.26C406.693 51.6867 406.033 50.8667 405.553 49.8C405.086 48.72 404.853 47.4533 404.853 46C404.853 44.5467 405.086 43.2867 405.553 42.22C406.033 41.14 406.693 40.3133 407.533 39.74C408.386 39.1667 409.353 38.88 410.433 38.88C411.513 38.88 412.473 39.1667 413.313 39.74C414.166 40.3133 414.833 41.14 415.313 42.22C415.793 43.2867 416.033 44.5467 416.033 46C416.033 47.4533 415.793 48.72 415.313 49.8C414.833 50.8667 414.166 51.6867 413.313 52.26C412.473 52.8333 411.513 53.12 410.433 53.12ZM410.433 51.8C411.246 51.8 411.959 51.5733 412.573 51.12C413.199 50.6667 413.686 50.0067 414.033 49.14C414.379 48.2733 414.553 47.2267 414.553 46C414.553 44.7733 414.379 43.7267 414.033 42.86C413.686 41.9933 413.199 41.3333 412.573 40.88C411.959 40.4267 411.246 40.2 410.433 40.2C409.619 40.2 408.899 40.4267 408.273 40.88C407.659 41.3333 407.179 41.9933 406.833 42.86C406.486 43.7267 406.312 44.7733 406.312 46C406.312 47.2267 406.486 48.2733 406.833 49.14C407.179 50.0067 407.659 50.6667 408.273 51.12C408.899 51.5733 409.619 51.8 410.433 51.8ZM421.936 39V53H420.496V40.28H417.196V39H421.936ZM426.362 53.1C426.069 53.1 425.816 52.9933 425.602 52.78C425.402 52.5667 425.302 52.3067 425.302 52C425.302 51.6933 425.402 51.44 425.602 51.24C425.816 51.0267 426.069 50.92 426.362 50.92C426.656 50.92 426.909 51.0267 427.122 51.24C427.336 51.44 427.442 51.6933 427.442 52C427.442 52.3067 427.336 52.5667 427.122 52.78C426.909 52.9933 426.656 53.1 426.362 53.1ZM439.276 51.72V53H429.456V51.98L435.276 46.28C436.009 45.56 436.502 44.94 436.756 44.42C437.022 43.8867 437.156 43.3533 437.156 42.82C437.156 41.9933 436.869 41.3533 436.296 40.9C435.736 40.4333 434.929 40.2 433.876 40.2C432.236 40.2 430.962 40.72 430.056 41.76L429.036 40.88C429.582 40.24 430.276 39.7467 431.116 39.4C431.969 39.0533 432.929 38.88 433.996 38.88C435.422 38.88 436.549 39.22 437.376 39.9C438.216 40.5667 438.636 41.4867 438.636 42.66C438.636 43.38 438.476 44.0733 438.156 44.74C437.836 45.4067 437.229 46.1733 436.336 47.04L431.576 51.72H439.276ZM446.585 53.12C445.505 53.12 444.538 52.8333 443.685 52.26C442.845 51.6867 442.185 50.8667 441.705 49.8C441.238 48.72 441.005 47.4533 441.005 46C441.005 44.5467 441.238 43.2867 441.705 42.22C442.185 41.14 442.845 40.3133 443.685 39.74C444.538 39.1667 445.505 38.88 446.585 38.88C447.665 38.88 448.625 39.1667 449.465 39.74C450.318 40.3133 450.985 41.14 451.465 42.22C451.945 43.2867 452.185 44.5467 452.185 46C452.185 47.4533 451.945 48.72 451.465 49.8C450.985 50.8667 450.318 51.6867 449.465 52.26C448.625 52.8333 447.665 53.12 446.585 53.12ZM446.585 51.8C447.398 51.8 448.112 51.5733 448.725 51.12C449.352 50.6667 449.838 50.0067 450.185 49.14C450.532 48.2733 450.705 47.2267 450.705 46C450.705 44.7733 450.532 43.7267 450.185 42.86C449.838 41.9933 449.352 41.3333 448.725 40.88C448.112 40.4267 447.398 40.2 446.585 40.2C445.772 40.2 445.052 40.4267 444.425 40.88C443.812 41.3333 443.332 41.9933 442.985 42.86C442.638 43.7267 442.465 44.7733 442.465 46C442.465 47.2267 442.638 48.2733 442.985 49.14C443.332 50.0067 443.812 50.6667 444.425 51.12C445.052 51.5733 445.772 51.8 446.585 51.8ZM463.768 51.72V53H453.948V51.98L459.768 46.28C460.501 45.56 460.995 44.94 461.248 44.42C461.515 43.8867 461.648 43.3533 461.648 42.82C461.648 41.9933 461.361 41.3533 460.788 40.9C460.228 40.4333 459.421 40.2 458.368 40.2C456.728 40.2 455.455 40.72 454.548 41.76L453.528 40.88C454.075 40.24 454.768 39.7467 455.608 39.4C456.461 39.0533 457.421 38.88 458.488 38.88C459.915 38.88 461.041 39.22 461.868 39.9C462.708 40.5667 463.128 41.4867 463.128 42.66C463.128 43.38 462.968 44.0733 462.648 44.74C462.328 45.4067 461.721 46.1733 460.828 47.04L456.068 51.72H463.768ZM471.077 53.12C469.997 53.12 469.03 52.8333 468.177 52.26C467.337 51.6867 466.677 50.8667 466.197 49.8C465.73 48.72 465.497 47.4533 465.497 46C465.497 44.5467 465.73 43.2867 466.197 42.22C466.677 41.14 467.337 40.3133 468.177 39.74C469.03 39.1667 469.997 38.88 471.077 38.88C472.157 38.88 473.117 39.1667 473.957 39.74C474.81 40.3133 475.477 41.14 475.957 42.22C476.437 43.2867 476.677 44.5467 476.677 46C476.677 47.4533 476.437 48.72 475.957 49.8C475.477 50.8667 474.81 51.6867 473.957 52.26C473.117 52.8333 472.157 53.12 471.077 53.12ZM471.077 51.8C471.89 51.8 472.604 51.5733 473.217 51.12C473.844 50.6667 474.33 50.0067 474.677 49.14C475.024 48.2733 475.197 47.2267 475.197 46C475.197 44.7733 475.024 43.7267 474.677 42.86C474.33 41.9933 473.844 41.3333 473.217 40.88C472.604 40.4267 471.89 40.2 471.077 40.2C470.264 40.2 469.544 40.4267 468.917 40.88C468.304 41.3333 467.824 41.9933 467.477 42.86C467.13 43.7267 466.957 44.7733 466.957 46C466.957 47.2267 467.13 48.2733 467.477 49.14C467.824 50.0067 468.304 50.6667 468.917 51.12C469.544 51.5733 470.264 51.8 471.077 51.8Z" fill="#F2F2F2"/>
<path d="M212.28 98H213.76V110.72H221.6V112H212.28V98ZM227.901 112.1C226.888 112.1 225.974 111.873 225.161 111.42C224.348 110.953 223.708 110.313 223.241 109.5C222.774 108.687 222.541 107.767 222.541 106.74C222.541 105.713 222.774 104.793 223.241 103.98C223.708 103.167 224.348 102.533 225.161 102.08C225.974 101.627 226.888 101.4 227.901 101.4C228.914 101.4 229.828 101.627 230.641 102.08C231.454 102.533 232.088 103.167 232.541 103.98C233.008 104.793 233.241 105.713 233.241 106.74C233.241 107.767 233.008 108.687 232.541 109.5C232.088 110.313 231.454 110.953 230.641 111.42C229.828 111.873 228.914 112.1 227.901 112.1ZM227.901 110.84C228.648 110.84 229.314 110.673 229.901 110.34C230.501 109.993 230.968 109.507 231.301 108.88C231.634 108.253 231.801 107.54 231.801 106.74C231.801 105.94 231.634 105.227 231.301 104.6C230.968 103.973 230.501 103.493 229.901 103.16C229.314 102.813 228.648 102.64 227.901 102.64C227.154 102.64 226.481 102.813 225.881 103.16C225.294 103.493 224.828 103.973 224.481 104.6C224.148 105.227 223.981 105.94 223.981 106.74C223.981 107.54 224.148 108.253 224.481 108.88C224.828 109.507 225.294 109.993 225.881 110.34C226.481 110.673 227.154 110.84 227.901 110.84ZM237.5 103.54C237.833 102.833 238.327 102.3 238.98 101.94C239.647 101.58 240.467 101.4 241.44 101.4V102.78L241.1 102.76C239.993 102.76 239.127 103.1 238.5 103.78C237.873 104.46 237.56 105.413 237.56 106.64V112H236.14V101.48H237.5V103.54ZM253.074 107.18H244.274C244.354 108.273 244.774 109.16 245.534 109.84C246.294 110.507 247.254 110.84 248.414 110.84C249.067 110.84 249.667 110.727 250.214 110.5C250.76 110.26 251.234 109.913 251.634 109.46L252.434 110.38C251.967 110.94 251.38 111.367 250.674 111.66C249.98 111.953 249.214 112.1 248.374 112.1C247.294 112.1 246.334 111.873 245.494 111.42C244.667 110.953 244.02 110.313 243.554 109.5C243.087 108.687 242.854 107.767 242.854 106.74C242.854 105.713 243.074 104.793 243.514 103.98C243.967 103.167 244.58 102.533 245.354 102.08C246.14 101.627 247.02 101.4 247.994 101.4C248.967 101.4 249.84 101.627 250.614 102.08C251.387 102.533 251.994 103.167 252.434 103.98C252.874 104.78 253.094 105.7 253.094 106.74L253.074 107.18ZM247.994 102.62C246.98 102.62 246.127 102.947 245.434 103.6C244.754 104.24 244.367 105.08 244.274 106.12H251.734C251.64 105.08 251.247 104.24 250.554 103.6C249.874 102.947 249.02 102.62 247.994 102.62ZM269.104 101.4C270.424 101.4 271.457 101.78 272.204 102.54C272.964 103.3 273.344 104.42 273.344 105.9V112H271.924V106.04C271.924 104.947 271.657 104.113 271.124 103.54C270.604 102.967 269.864 102.68 268.904 102.68C267.811 102.68 266.951 103.02 266.324 103.7C265.697 104.367 265.384 105.293 265.384 106.48V112H263.964V106.04C263.964 104.947 263.697 104.113 263.164 103.54C262.644 102.967 261.897 102.68 260.924 102.68C259.844 102.68 258.984 103.02 258.344 103.7C257.717 104.367 257.404 105.293 257.404 106.48V112H255.984V101.48H257.344V103.4C257.717 102.76 258.237 102.267 258.904 101.92C259.571 101.573 260.337 101.4 261.204 101.4C262.084 101.4 262.844 101.587 263.484 101.96C264.137 102.333 264.624 102.887 264.944 103.62C265.331 102.927 265.884 102.387 266.604 102C267.337 101.6 268.171 101.4 269.104 101.4ZM282.429 101.48H283.849V112H282.429V101.48ZM283.149 99.18C282.856 99.18 282.609 99.08 282.409 98.88C282.209 98.68 282.109 98.44 282.109 98.16C282.109 97.8933 282.209 97.66 282.409 97.46C282.609 97.26 282.856 97.16 283.149 97.16C283.443 97.16 283.689 97.26 283.889 97.46C284.089 97.6467 284.189 97.8733 284.189 98.14C284.189 98.4333 284.089 98.68 283.889 98.88C283.689 99.08 283.443 99.18 283.149 99.18ZM293.22 101.4C294.207 101.4 295.1 101.627 295.9 102.08C296.7 102.52 297.327 103.147 297.78 103.96C298.234 104.773 298.46 105.7 298.46 106.74C298.46 107.793 298.234 108.727 297.78 109.54C297.327 110.353 296.7 110.987 295.9 111.44C295.114 111.88 294.22 112.1 293.22 112.1C292.367 112.1 291.594 111.927 290.9 111.58C290.22 111.22 289.66 110.7 289.22 110.02V115.88H287.8V101.48H289.16V103.56C289.587 102.867 290.147 102.333 290.84 101.96C291.547 101.587 292.34 101.4 293.22 101.4ZM293.12 110.84C293.854 110.84 294.52 110.673 295.12 110.34C295.72 109.993 296.187 109.507 296.52 108.88C296.867 108.253 297.04 107.54 297.04 106.74C297.04 105.94 296.867 105.233 296.52 104.62C296.187 103.993 295.72 103.507 295.12 103.16C294.52 102.813 293.854 102.64 293.12 102.64C292.374 102.64 291.7 102.813 291.1 103.16C290.514 103.507 290.047 103.993 289.7 104.62C289.367 105.233 289.2 105.94 289.2 106.74C289.2 107.54 289.367 108.253 289.7 108.88C290.047 109.507 290.514 109.993 291.1 110.34C291.7 110.673 292.374 110.84 293.12 110.84ZM304.175 112.1C303.322 112.1 302.502 111.98 301.715 111.74C300.942 111.487 300.335 111.173 299.895 110.8L300.535 109.68C300.975 110.027 301.528 110.313 302.195 110.54C302.862 110.753 303.555 110.86 304.275 110.86C305.235 110.86 305.942 110.713 306.395 110.42C306.862 110.113 307.095 109.687 307.095 109.14C307.095 108.753 306.968 108.453 306.715 108.24C306.462 108.013 306.142 107.847 305.755 107.74C305.368 107.62 304.855 107.507 304.215 107.4C303.362 107.24 302.675 107.08 302.155 106.92C301.635 106.747 301.188 106.46 300.815 106.06C300.455 105.66 300.275 105.107 300.275 104.4C300.275 103.52 300.642 102.8 301.375 102.24C302.108 101.68 303.128 101.4 304.435 101.4C305.115 101.4 305.795 101.493 306.475 101.68C307.155 101.853 307.715 102.087 308.155 102.38L307.535 103.52C306.668 102.92 305.635 102.62 304.435 102.62C303.528 102.62 302.842 102.78 302.375 103.1C301.922 103.42 301.695 103.84 301.695 104.36C301.695 104.76 301.822 105.08 302.075 105.32C302.342 105.56 302.668 105.74 303.055 105.86C303.442 105.967 303.975 106.08 304.655 106.2C305.495 106.36 306.168 106.52 306.675 106.68C307.182 106.84 307.615 107.113 307.975 107.5C308.335 107.887 308.515 108.42 308.515 109.1C308.515 110.02 308.128 110.753 307.355 111.3C306.595 111.833 305.535 112.1 304.175 112.1ZM320.62 101.48V112H319.26V110.08C318.887 110.72 318.373 111.22 317.72 111.58C317.067 111.927 316.32 112.1 315.48 112.1C314.107 112.1 313.02 111.72 312.22 110.96C311.433 110.187 311.04 109.06 311.04 107.58V101.48H312.46V107.44C312.46 108.547 312.733 109.387 313.28 109.96C313.827 110.533 314.607 110.82 315.62 110.82C316.727 110.82 317.6 110.487 318.24 109.82C318.88 109.14 319.2 108.2 319.2 107V101.48H320.62ZM337.717 101.4C339.037 101.4 340.071 101.78 340.817 102.54C341.577 103.3 341.957 104.42 341.957 105.9V112H340.537V106.04C340.537 104.947 340.271 104.113 339.737 103.54C339.217 102.967 338.477 102.68 337.517 102.68C336.424 102.68 335.564 103.02 334.937 103.7C334.311 104.367 333.997 105.293 333.997 106.48V112H332.577V106.04C332.577 104.947 332.311 104.113 331.777 103.54C331.257 102.967 330.511 102.68 329.537 102.68C328.457 102.68 327.597 103.02 326.957 103.7C326.331 104.367 326.017 105.293 326.017 106.48V112H324.597V101.48H325.957V103.4C326.331 102.76 326.851 102.267 327.517 101.92C328.184 101.573 328.951 101.4 329.817 101.4C330.697 101.4 331.457 101.587 332.097 101.96C332.751 102.333 333.237 102.887 333.557 103.62C333.944 102.927 334.497 102.387 335.217 102C335.951 101.6 336.784 101.4 337.717 101.4ZM360.643 97.16V112H359.283V109.92C358.856 110.627 358.289 111.167 357.583 111.54C356.889 111.913 356.103 112.1 355.223 112.1C354.236 112.1 353.343 111.873 352.543 111.42C351.743 110.967 351.116 110.333 350.663 109.52C350.209 108.707 349.983 107.78 349.983 106.74C349.983 105.7 350.209 104.773 350.663 103.96C351.116 103.147 351.743 102.52 352.543 102.08C353.343 101.627 354.236 101.4 355.223 101.4C356.076 101.4 356.843 101.58 357.523 101.94C358.216 102.287 358.783 102.8 359.223 103.48V97.16H360.643ZM355.343 110.84C356.076 110.84 356.736 110.673 357.323 110.34C357.923 109.993 358.389 109.507 358.723 108.88C359.069 108.253 359.243 107.54 359.243 106.74C359.243 105.94 359.069 105.227 358.723 104.6C358.389 103.973 357.923 103.493 357.323 103.16C356.736 102.813 356.076 102.64 355.343 102.64C354.596 102.64 353.923 102.813 353.323 103.16C352.736 103.493 352.269 103.973 351.923 104.6C351.589 105.227 351.423 105.94 351.423 106.74C351.423 107.54 351.589 108.253 351.923 108.88C352.269 109.507 352.736 109.993 353.323 110.34C353.923 110.673 354.596 110.84 355.343 110.84ZM368.897 112.1C367.884 112.1 366.971 111.873 366.157 111.42C365.344 110.953 364.704 110.313 364.237 109.5C363.771 108.687 363.537 107.767 363.537 106.74C363.537 105.713 363.771 104.793 364.237 103.98C364.704 103.167 365.344 102.533 366.157 102.08C366.971 101.627 367.884 101.4 368.897 101.4C369.911 101.4 370.824 101.627 371.637 102.08C372.451 102.533 373.084 103.167 373.537 103.98C374.004 104.793 374.237 105.713 374.237 106.74C374.237 107.767 374.004 108.687 373.537 109.5C373.084 110.313 372.451 110.953 371.637 111.42C370.824 111.873 369.911 112.1 368.897 112.1ZM368.897 110.84C369.644 110.84 370.311 110.673 370.897 110.34C371.497 109.993 371.964 109.507 372.297 108.88C372.631 108.253 372.797 107.54 372.797 106.74C372.797 105.94 372.631 105.227 372.297 104.6C371.964 103.973 371.497 103.493 370.897 103.16C370.311 102.813 369.644 102.64 368.897 102.64C368.151 102.64 367.477 102.813 366.877 103.16C366.291 103.493 365.824 103.973 365.477 104.6C365.144 105.227 364.977 105.94 364.977 106.74C364.977 107.54 365.144 108.253 365.477 108.88C365.824 109.507 366.291 109.993 366.877 110.34C367.477 110.673 368.151 110.84 368.897 110.84ZM377.136 97.16H378.556V112H377.136V97.16ZM386.807 112.1C385.794 112.1 384.881 111.873 384.067 111.42C383.254 110.953 382.614 110.313 382.147 109.5C381.681 108.687 381.447 107.767 381.447 106.74C381.447 105.713 381.681 104.793 382.147 103.98C382.614 103.167 383.254 102.533 384.067 102.08C384.881 101.627 385.794 101.4 386.807 101.4C387.821 101.4 388.734 101.627 389.547 102.08C390.361 102.533 390.994 103.167 391.447 103.98C391.914 104.793 392.147 105.713 392.147 106.74C392.147 107.767 391.914 108.687 391.447 109.5C390.994 110.313 390.361 110.953 389.547 111.42C388.734 111.873 387.821 112.1 386.807 112.1ZM386.807 110.84C387.554 110.84 388.221 110.673 388.807 110.34C389.407 109.993 389.874 109.507 390.207 108.88C390.541 108.253 390.707 107.54 390.707 106.74C390.707 105.94 390.541 105.227 390.207 104.6C389.874 103.973 389.407 103.493 388.807 103.16C388.221 102.813 387.554 102.64 386.807 102.64C386.061 102.64 385.387 102.813 384.787 103.16C384.201 103.493 383.734 103.973 383.387 104.6C383.054 105.227 382.887 105.94 382.887 106.74C382.887 107.54 383.054 108.253 383.387 108.88C383.734 109.507 384.201 109.993 384.787 110.34C385.387 110.673 386.061 110.84 386.807 110.84ZM396.406 103.54C396.74 102.833 397.233 102.3 397.886 101.94C398.553 101.58 399.373 101.4 400.346 101.4V102.78L400.006 102.76C398.9 102.76 398.033 103.1 397.406 103.78C396.78 104.46 396.466 105.413 396.466 106.64V112H395.046V101.48H396.406V103.54ZM411.128 112.1C410.275 112.1 409.455 111.98 408.668 111.74C407.895 111.487 407.288 111.173 406.848 110.8L407.488 109.68C407.928 110.027 408.481 110.313 409.148 110.54C409.815 110.753 410.508 110.86 411.228 110.86C412.188 110.86 412.895 110.713 413.348 110.42C413.815 110.113 414.048 109.687 414.048 109.14C414.048 108.753 413.921 108.453 413.668 108.24C413.415 108.013 413.095 107.847 412.708 107.74C412.321 107.62 411.808 107.507 411.168 107.4C410.315 107.24 409.628 107.08 409.108 106.92C408.588 106.747 408.141 106.46 407.768 106.06C407.408 105.66 407.228 105.107 407.228 104.4C407.228 103.52 407.595 102.8 408.328 102.24C409.061 101.68 410.081 101.4 411.388 101.4C412.068 101.4 412.748 101.493 413.428 101.68C414.108 101.853 414.668 102.087 415.108 102.38L414.488 103.52C413.621 102.92 412.588 102.62 411.388 102.62C410.481 102.62 409.795 102.78 409.328 103.1C408.875 103.42 408.648 103.84 408.648 104.36C408.648 104.76 408.775 105.08 409.028 105.32C409.295 105.56 409.621 105.74 410.008 105.86C410.395 105.967 410.928 106.08 411.608 106.2C412.448 106.36 413.121 106.52 413.628 106.68C414.135 106.84 414.568 107.113 414.928 107.5C415.288 107.887 415.468 108.42 415.468 109.1C415.468 110.02 415.081 110.753 414.308 111.3C413.548 111.833 412.488 112.1 411.128 112.1ZM418.093 101.48H419.513V112H418.093V101.48ZM418.813 99.18C418.52 99.18 418.273 99.08 418.073 98.88C417.873 98.68 417.773 98.44 417.773 98.16C417.773 97.8933 417.873 97.66 418.073 97.46C418.273 97.26 418.52 97.16 418.813 97.16C419.107 97.16 419.353 97.26 419.553 97.46C419.753 97.6467 419.853 97.8733 419.853 98.14C419.853 98.4333 419.753 98.68 419.553 98.88C419.353 99.08 419.107 99.18 418.813 99.18ZM429.004 111.36C428.738 111.6 428.404 111.787 428.004 111.92C427.618 112.04 427.211 112.1 426.784 112.1C425.798 112.1 425.038 111.833 424.504 111.3C423.971 110.767 423.704 110.013 423.704 109.04V102.68H421.824V101.48H423.704V99.18H425.124V101.48H428.324V102.68H425.124V108.96C425.124 109.587 425.278 110.067 425.584 110.4C425.904 110.72 426.358 110.88 426.944 110.88C427.238 110.88 427.518 110.833 427.784 110.74C428.064 110.647 428.304 110.513 428.504 110.34L429.004 111.36ZM440.504 101.4C441.877 101.4 442.93 101.747 443.664 102.44C444.397 103.12 444.764 104.133 444.764 105.48V112H443.404V110.36C443.084 110.907 442.61 111.333 441.984 111.64C441.37 111.947 440.637 112.1 439.784 112.1C438.61 112.1 437.677 111.82 436.984 111.26C436.29 110.7 435.944 109.96 435.944 109.04C435.944 108.147 436.264 107.427 436.904 106.88C437.557 106.333 438.59 106.06 440.004 106.06H443.344V105.42C443.344 104.513 443.09 103.827 442.584 103.36C442.077 102.88 441.337 102.64 440.364 102.64C439.697 102.64 439.057 102.753 438.444 102.98C437.83 103.193 437.304 103.493 436.864 103.88L436.224 102.82C436.757 102.367 437.397 102.02 438.144 101.78C438.89 101.527 439.677 101.4 440.504 101.4ZM440.004 110.98C440.804 110.98 441.49 110.8 442.064 110.44C442.637 110.067 443.064 109.533 443.344 108.84V107.12H440.044C438.244 107.12 437.344 107.747 437.344 109C437.344 109.613 437.577 110.1 438.044 110.46C438.51 110.807 439.164 110.98 440.004 110.98ZM461.741 101.4C463.061 101.4 464.094 101.78 464.841 102.54C465.601 103.3 465.981 104.42 465.981 105.9V112H464.561V106.04C464.561 104.947 464.294 104.113 463.761 103.54C463.241 102.967 462.501 102.68 461.541 102.68C460.447 102.68 459.587 103.02 458.961 103.7C458.334 104.367 458.021 105.293 458.021 106.48V112H456.601V106.04C456.601 104.947 456.334 104.113 455.801 103.54C455.281 102.967 454.534 102.68 453.561 102.68C452.481 102.68 451.621 103.02 450.981 103.7C450.354 104.367 450.041 105.293 450.041 106.48V112H448.621V101.48H449.981V103.4C450.354 102.76 450.874 102.267 451.541 101.92C452.207 101.573 452.974 101.4 453.841 101.4C454.721 101.4 455.481 101.587 456.121 101.96C456.774 102.333 457.261 102.887 457.581 103.62C457.967 102.927 458.521 102.387 459.241 102C459.974 101.6 460.807 101.4 461.741 101.4ZM479.031 107.18H470.231C470.311 108.273 470.731 109.16 471.491 109.84C472.251 110.507 473.211 110.84 474.371 110.84C475.024 110.84 475.624 110.727 476.171 110.5C476.717 110.26 477.191 109.913 477.591 109.46L478.391 110.38C477.924 110.94 477.337 111.367 476.631 111.66C475.937 111.953 475.171 112.1 474.331 112.1C473.251 112.1 472.291 111.873 471.451 111.42C470.624 110.953 469.977 110.313 469.511 109.5C469.044 108.687 468.811 107.767 468.811 106.74C468.811 105.713 469.031 104.793 469.471 103.98C469.924 103.167 470.537 102.533 471.311 102.08C472.097 101.627 472.977 101.4 473.951 101.4C474.924 101.4 475.797 101.627 476.571 102.08C477.344 102.533 477.951 103.167 478.391 103.98C478.831 104.78 479.051 105.7 479.051 106.74L479.031 107.18ZM473.951 102.62C472.937 102.62 472.084 102.947 471.391 103.6C470.711 104.24 470.324 105.08 470.231 106.12H477.691C477.597 105.08 477.204 104.24 476.511 103.6C475.831 102.947 474.977 102.62 473.951 102.62ZM487.481 111.36C487.214 111.6 486.881 111.787 486.481 111.92C486.094 112.04 485.688 112.1 485.261 112.1C484.274 112.1 483.514 111.833 482.981 111.3C482.448 110.767 482.181 110.013 482.181 109.04V102.68H480.301V101.48H482.181V99.18H483.601V101.48H486.801V102.68H483.601V108.96C483.601 109.587 483.754 110.067 484.061 110.4C484.381 110.72 484.834 110.88 485.421 110.88C485.714 110.88 485.994 110.833 486.261 110.74C486.541 110.647 486.781 110.513 486.981 110.34L487.481 111.36ZM490.421 109.92C490.728 109.92 490.981 110.027 491.181 110.24C491.381 110.44 491.481 110.693 491.481 111C491.481 111.16 491.455 111.333 491.401 111.52C491.361 111.707 491.295 111.92 491.201 112.16L490.361 114.92H489.401L490.081 112.02C489.868 111.953 489.695 111.833 489.561 111.66C489.428 111.473 489.361 111.253 489.361 111C489.361 110.693 489.461 110.44 489.661 110.24C489.861 110.027 490.115 109.92 490.421 109.92ZM216.34 136.1C215.3 136.1 214.367 135.873 213.54 135.42C212.727 134.967 212.087 134.333 211.62 133.52C211.153 132.693 210.92 131.767 210.92 130.74C210.92 129.713 211.153 128.793 211.62 127.98C212.087 127.167 212.727 126.533 213.54 126.08C214.367 125.627 215.3 125.4 216.34 125.4C217.247 125.4 218.053 125.58 218.76 125.94C219.48 126.287 220.047 126.8 220.46 127.48L219.4 128.2C219.053 127.68 218.613 127.293 218.08 127.04C217.547 126.773 216.967 126.64 216.34 126.64C215.58 126.64 214.893 126.813 214.28 127.16C213.68 127.493 213.207 127.973 212.86 128.6C212.527 129.227 212.36 129.94 212.36 130.74C212.36 131.553 212.527 132.273 212.86 132.9C213.207 133.513 213.68 133.993 214.28 134.34C214.893 134.673 215.58 134.84 216.34 134.84C216.967 134.84 217.547 134.713 218.08 134.46C218.613 134.207 219.053 133.82 219.4 133.3L220.46 134.02C220.047 134.7 219.48 135.22 218.76 135.58C218.04 135.927 217.233 136.1 216.34 136.1ZM227.374 136.1C226.36 136.1 225.447 135.873 224.634 135.42C223.82 134.953 223.18 134.313 222.714 133.5C222.247 132.687 222.014 131.767 222.014 130.74C222.014 129.713 222.247 128.793 222.714 127.98C223.18 127.167 223.82 126.533 224.634 126.08C225.447 125.627 226.36 125.4 227.374 125.4C228.387 125.4 229.3 125.627 230.114 126.08C230.927 126.533 231.56 127.167 232.014 127.98C232.48 128.793 232.714 129.713 232.714 130.74C232.714 131.767 232.48 132.687 232.014 133.5C231.56 134.313 230.927 134.953 230.114 135.42C229.3 135.873 228.387 136.1 227.374 136.1ZM227.374 134.84C228.12 134.84 228.787 134.673 229.374 134.34C229.974 133.993 230.44 133.507 230.774 132.88C231.107 132.253 231.274 131.54 231.274 130.74C231.274 129.94 231.107 129.227 230.774 128.6C230.44 127.973 229.974 127.493 229.374 127.16C228.787 126.813 228.12 126.64 227.374 126.64C226.627 126.64 225.954 126.813 225.354 127.16C224.767 127.493 224.3 127.973 223.954 128.6C223.62 129.227 223.454 129.94 223.454 130.74C223.454 131.54 223.62 132.253 223.954 132.88C224.3 133.507 224.767 133.993 225.354 134.34C225.954 134.673 226.627 134.84 227.374 134.84ZM240.973 125.4C242.293 125.4 243.339 125.787 244.113 126.56C244.899 127.32 245.293 128.433 245.293 129.9V136H243.873V130.04C243.873 128.947 243.599 128.113 243.053 127.54C242.506 126.967 241.726 126.68 240.713 126.68C239.579 126.68 238.679 127.02 238.013 127.7C237.359 128.367 237.033 129.293 237.033 130.48V136H235.613V125.48H236.973V127.42C237.359 126.78 237.893 126.287 238.573 125.94C239.266 125.58 240.066 125.4 240.973 125.4ZM251.968 136.1C251.115 136.1 250.295 135.98 249.508 135.74C248.735 135.487 248.128 135.173 247.688 134.8L248.328 133.68C248.768 134.027 249.321 134.313 249.988 134.54C250.655 134.753 251.348 134.86 252.068 134.86C253.028 134.86 253.735 134.713 254.188 134.42C254.655 134.113 254.888 133.687 254.888 133.14C254.888 132.753 254.761 132.453 254.508 132.24C254.255 132.013 253.935 131.847 253.548 131.74C253.161 131.62 252.648 131.507 252.008 131.4C251.155 131.24 250.468 131.08 249.948 130.92C249.428 130.747 248.981 130.46 248.608 130.06C248.248 129.66 248.068 129.107 248.068 128.4C248.068 127.52 248.435 126.8 249.168 126.24C249.901 125.68 250.921 125.4 252.228 125.4C252.908 125.4 253.588 125.493 254.268 125.68C254.948 125.853 255.508 126.087 255.948 126.38L255.328 127.52C254.461 126.92 253.428 126.62 252.228 126.62C251.321 126.62 250.635 126.78 250.168 127.1C249.715 127.42 249.488 127.84 249.488 128.36C249.488 128.76 249.615 129.08 249.868 129.32C250.135 129.56 250.461 129.74 250.848 129.86C251.235 129.967 251.768 130.08 252.448 130.2C253.288 130.36 253.961 130.52 254.468 130.68C254.975 130.84 255.408 131.113 255.768 131.5C256.128 131.887 256.308 132.42 256.308 133.1C256.308 134.02 255.921 134.753 255.148 135.3C254.388 135.833 253.328 136.1 251.968 136.1ZM268.093 131.18H259.293C259.373 132.273 259.793 133.16 260.553 133.84C261.313 134.507 262.273 134.84 263.433 134.84C264.086 134.84 264.686 134.727 265.233 134.5C265.78 134.26 266.253 133.913 266.653 133.46L267.453 134.38C266.986 134.94 266.4 135.367 265.693 135.66C265 135.953 264.233 136.1 263.393 136.1C262.313 136.1 261.353 135.873 260.513 135.42C259.686 134.953 259.04 134.313 258.573 133.5C258.106 132.687 257.873 131.767 257.873 130.74C257.873 129.713 258.093 128.793 258.533 127.98C258.986 127.167 259.6 126.533 260.373 126.08C261.16 125.627 262.04 125.4 263.013 125.4C263.986 125.4 264.86 125.627 265.633 126.08C266.406 126.533 267.013 127.167 267.453 127.98C267.893 128.78 268.113 129.7 268.113 130.74L268.093 131.18ZM263.013 126.62C262 126.62 261.146 126.947 260.453 127.6C259.773 128.24 259.386 129.08 259.293 130.12H266.753C266.66 129.08 266.266 128.24 265.573 127.6C264.893 126.947 264.04 126.62 263.013 126.62ZM275.363 136.1C274.323 136.1 273.39 135.873 272.563 135.42C271.75 134.967 271.11 134.333 270.643 133.52C270.177 132.693 269.943 131.767 269.943 130.74C269.943 129.713 270.177 128.793 270.643 127.98C271.11 127.167 271.75 126.533 272.563 126.08C273.39 125.627 274.323 125.4 275.363 125.4C276.27 125.4 277.077 125.58 277.783 125.94C278.503 126.287 279.07 126.8 279.483 127.48L278.423 128.2C278.077 127.68 277.637 127.293 277.103 127.04C276.57 126.773 275.99 126.64 275.363 126.64C274.603 126.64 273.917 126.813 273.303 127.16C272.703 127.493 272.23 127.973 271.883 128.6C271.55 129.227 271.383 129.94 271.383 130.74C271.383 131.553 271.55 132.273 271.883 132.9C272.23 133.513 272.703 133.993 273.303 134.34C273.917 134.673 274.603 134.84 275.363 134.84C275.99 134.84 276.57 134.713 277.103 134.46C277.637 134.207 278.077 133.82 278.423 133.3L279.483 134.02C279.07 134.7 278.503 135.22 277.783 135.58C277.063 135.927 276.257 136.1 275.363 136.1ZM287.93 135.36C287.663 135.6 287.33 135.787 286.93 135.92C286.543 136.04 286.137 136.1 285.71 136.1C284.723 136.1 283.963 135.833 283.43 135.3C282.897 134.767 282.63 134.013 282.63 133.04V126.68H280.75V125.48H282.63V123.18H284.05V125.48H287.25V126.68H284.05V132.96C284.05 133.587 284.203 134.067 284.51 134.4C284.83 134.72 285.283 134.88 285.87 134.88C286.163 134.88 286.443 134.833 286.71 134.74C286.99 134.647 287.23 134.513 287.43 134.34L287.93 135.36ZM299.304 131.18H290.504C290.584 132.273 291.004 133.16 291.764 133.84C292.524 134.507 293.484 134.84 294.644 134.84C295.297 134.84 295.897 134.727 296.444 134.5C296.991 134.26 297.464 133.913 297.864 133.46L298.664 134.38C298.197 134.94 297.611 135.367 296.904 135.66C296.211 135.953 295.444 136.1 294.604 136.1C293.524 136.1 292.564 135.873 291.724 135.42C290.897 134.953 290.251 134.313 289.784 133.5C289.317 132.687 289.084 131.767 289.084 130.74C289.084 129.713 289.304 128.793 289.744 127.98C290.197 127.167 290.811 126.533 291.584 126.08C292.371 125.627 293.251 125.4 294.224 125.4C295.197 125.4 296.071 125.627 296.844 126.08C297.617 126.533 298.224 127.167 298.664 127.98C299.104 128.78 299.324 129.7 299.324 130.74L299.304 131.18ZM294.224 126.62C293.211 126.62 292.357 126.947 291.664 127.6C290.984 128.24 290.597 129.08 290.504 130.12H297.964C297.871 129.08 297.477 128.24 296.784 127.6C296.104 126.947 295.251 126.62 294.224 126.62ZM307.754 135.36C307.488 135.6 307.154 135.787 306.754 135.92C306.368 136.04 305.961 136.1 305.534 136.1C304.548 136.1 303.788 135.833 303.254 135.3C302.721 134.767 302.454 134.013 302.454 133.04V126.68H300.574V125.48H302.454V123.18H303.874V125.48H307.074V126.68H303.874V132.96C303.874 133.587 304.028 134.067 304.334 134.4C304.654 134.72 305.108 134.88 305.694 134.88C305.988 134.88 306.268 134.833 306.534 134.74C306.814 134.647 307.054 134.513 307.254 134.34L307.754 135.36ZM319.819 125.48V136H318.459V134.08C318.086 134.72 317.573 135.22 316.919 135.58C316.266 135.927 315.519 136.1 314.679 136.1C313.306 136.1 312.219 135.72 311.419 134.96C310.633 134.187 310.239 133.06 310.239 131.58V125.48H311.659V131.44C311.659 132.547 311.933 133.387 312.479 133.96C313.026 134.533 313.806 134.82 314.819 134.82C315.926 134.82 316.799 134.487 317.439 133.82C318.079 133.14 318.399 132.2 318.399 131V125.48H319.819ZM325.156 127.54C325.49 126.833 325.983 126.3 326.636 125.94C327.303 125.58 328.123 125.4 329.096 125.4V126.78L328.756 126.76C327.65 126.76 326.783 127.1 326.156 127.78C325.53 128.46 325.216 129.413 325.216 130.64V136H323.796V125.48H325.156V127.54ZM340.738 125.4C342.111 125.4 343.165 125.747 343.898 126.44C344.631 127.12 344.998 128.133 344.998 129.48V136H343.638V134.36C343.318 134.907 342.845 135.333 342.218 135.64C341.605 135.947 340.871 136.1 340.018 136.1C338.845 136.1 337.911 135.82 337.218 135.26C336.525 134.7 336.178 133.96 336.178 133.04C336.178 132.147 336.498 131.427 337.138 130.88C337.791 130.333 338.825 130.06 340.238 130.06H343.578V129.42C343.578 128.513 343.325 127.827 342.818 127.36C342.311 126.88 341.571 126.64 340.598 126.64C339.931 126.64 339.291 126.753 338.678 126.98C338.065 127.193 337.538 127.493 337.098 127.88L336.458 126.82C336.991 126.367 337.631 126.02 338.378 125.78C339.125 125.527 339.911 125.4 340.738 125.4ZM340.238 134.98C341.038 134.98 341.725 134.8 342.298 134.44C342.871 134.067 343.298 133.533 343.578 132.84V131.12H340.278C338.478 131.12 337.578 131.747 337.578 133C337.578 133.613 337.811 134.1 338.278 134.46C338.745 134.807 339.398 134.98 340.238 134.98ZM358.494 121.16V136H357.134V133.92C356.707 134.627 356.141 135.167 355.434 135.54C354.741 135.913 353.954 136.1 353.074 136.1C352.087 136.1 351.194 135.873 350.394 135.42C349.594 134.967 348.967 134.333 348.514 133.52C348.061 132.707 347.834 131.78 347.834 130.74C347.834 129.7 348.061 128.773 348.514 127.96C348.967 127.147 349.594 126.52 350.394 126.08C351.194 125.627 352.087 125.4 353.074 125.4C353.927 125.4 354.694 125.58 355.374 125.94C356.067 126.287 356.634 126.8 357.074 127.48V121.16H358.494ZM353.194 134.84C353.927 134.84 354.587 134.673 355.174 134.34C355.774 133.993 356.241 133.507 356.574 132.88C356.921 132.253 357.094 131.54 357.094 130.74C357.094 129.94 356.921 129.227 356.574 128.6C356.241 127.973 355.774 127.493 355.174 127.16C354.587 126.813 353.927 126.64 353.194 126.64C352.447 126.64 351.774 126.813 351.174 127.16C350.587 127.493 350.121 127.973 349.774 128.6C349.441 129.227 349.274 129.94 349.274 130.74C349.274 131.54 349.441 132.253 349.774 132.88C350.121 133.507 350.587 133.993 351.174 134.34C351.774 134.673 352.447 134.84 353.194 134.84ZM362.449 125.48H363.869V136H362.449V125.48ZM363.169 123.18C362.875 123.18 362.629 123.08 362.429 122.88C362.229 122.68 362.129 122.44 362.129 122.16C362.129 121.893 362.229 121.66 362.429 121.46C362.629 121.26 362.875 121.16 363.169 121.16C363.462 121.16 363.709 121.26 363.909 121.46C364.109 121.647 364.209 121.873 364.209 122.14C364.209 122.433 364.109 122.68 363.909 122.88C363.709 123.08 363.462 123.18 363.169 123.18ZM373.24 125.4C374.227 125.4 375.12 125.627 375.92 126.08C376.72 126.52 377.347 127.147 377.8 127.96C378.253 128.773 378.48 129.7 378.48 130.74C378.48 131.793 378.253 132.727 377.8 133.54C377.347 134.353 376.72 134.987 375.92 135.44C375.133 135.88 374.24 136.1 373.24 136.1C372.387 136.1 371.613 135.927 370.92 135.58C370.24 135.22 369.68 134.7 369.24 134.02V139.88H367.82V125.48H369.18V127.56C369.607 126.867 370.167 126.333 370.86 125.96C371.567 125.587 372.36 125.4 373.24 125.4ZM373.14 134.84C373.873 134.84 374.54 134.673 375.14 134.34C375.74 133.993 376.207 133.507 376.54 132.88C376.887 132.253 377.06 131.54 377.06 130.74C377.06 129.94 376.887 129.233 376.54 128.62C376.207 127.993 375.74 127.507 375.14 127.16C374.54 126.813 373.873 126.64 373.14 126.64C372.393 126.64 371.72 126.813 371.12 127.16C370.533 127.507 370.067 127.993 369.72 128.62C369.387 129.233 369.22 129.94 369.22 130.74C369.22 131.54 369.387 132.253 369.72 132.88C370.067 133.507 370.533 133.993 371.12 134.34C371.72 134.673 372.393 134.84 373.14 134.84ZM381.375 125.48H382.795V136H381.375V125.48ZM382.095 123.18C381.801 123.18 381.555 123.08 381.355 122.88C381.155 122.68 381.055 122.44 381.055 122.16C381.055 121.893 381.155 121.66 381.355 121.46C381.555 121.26 381.801 121.16 382.095 121.16C382.388 121.16 382.635 121.26 382.835 121.46C383.035 121.647 383.135 121.873 383.135 122.14C383.135 122.433 383.035 122.68 382.835 122.88C382.635 123.08 382.388 123.18 382.095 123.18ZM389.566 136.1C388.712 136.1 387.892 135.98 387.106 135.74C386.332 135.487 385.726 135.173 385.286 134.8L385.926 133.68C386.366 134.027 386.919 134.313 387.586 134.54C388.252 134.753 388.946 134.86 389.666 134.86C390.626 134.86 391.332 134.713 391.786 134.42C392.252 134.113 392.486 133.687 392.486 133.14C392.486 132.753 392.359 132.453 392.106 132.24C391.852 132.013 391.532 131.847 391.146 131.74C390.759 131.62 390.246 131.507 389.606 131.4C388.752 131.24 388.066 131.08 387.546 130.92C387.026 130.747 386.579 130.46 386.206 130.06C385.846 129.66 385.666 129.107 385.666 128.4C385.666 127.52 386.032 126.8 386.766 126.24C387.499 125.68 388.519 125.4 389.826 125.4C390.506 125.4 391.186 125.493 391.866 125.68C392.546 125.853 393.106 126.087 393.546 126.38L392.926 127.52C392.059 126.92 391.026 126.62 389.826 126.62C388.919 126.62 388.232 126.78 387.766 127.1C387.312 127.42 387.086 127.84 387.086 128.36C387.086 128.76 387.212 129.08 387.466 129.32C387.732 129.56 388.059 129.74 388.446 129.86C388.832 129.967 389.366 130.08 390.046 130.2C390.886 130.36 391.559 130.52 392.066 130.68C392.572 130.84 393.006 131.113 393.366 131.5C393.726 131.887 393.906 132.42 393.906 133.1C393.906 134.02 393.519 134.753 392.746 135.3C391.986 135.833 390.926 136.1 389.566 136.1ZM400.891 136.1C399.851 136.1 398.917 135.873 398.091 135.42C397.277 134.967 396.637 134.333 396.171 133.52C395.704 132.693 395.471 131.767 395.471 130.74C395.471 129.713 395.704 128.793 396.171 127.98C396.637 127.167 397.277 126.533 398.091 126.08C398.917 125.627 399.851 125.4 400.891 125.4C401.797 125.4 402.604 125.58 403.311 125.94C404.031 126.287 404.597 126.8 405.011 127.48L403.951 128.2C403.604 127.68 403.164 127.293 402.631 127.04C402.097 126.773 401.517 126.64 400.891 126.64C400.131 126.64 399.444 126.813 398.831 127.16C398.231 127.493 397.757 127.973 397.411 128.6C397.077 129.227 396.911 129.94 396.911 130.74C396.911 131.553 397.077 132.273 397.411 132.9C397.757 133.513 398.231 133.993 398.831 134.34C399.444 134.673 400.131 134.84 400.891 134.84C401.517 134.84 402.097 134.713 402.631 134.46C403.164 134.207 403.604 133.82 403.951 133.3L405.011 134.02C404.597 134.7 404.031 135.22 403.311 135.58C402.591 135.927 401.784 136.1 400.891 136.1ZM407.8 125.48H409.22V136H407.8V125.48ZM408.52 123.18C408.227 123.18 407.98 123.08 407.78 122.88C407.58 122.68 407.48 122.44 407.48 122.16C407.48 121.893 407.58 121.66 407.78 121.46C407.98 121.26 408.227 121.16 408.52 121.16C408.814 121.16 409.06 121.26 409.26 121.46C409.46 121.647 409.56 121.873 409.56 122.14C409.56 122.433 409.46 122.68 409.26 122.88C409.06 123.08 408.814 123.18 408.52 123.18ZM418.531 125.4C419.851 125.4 420.898 125.787 421.671 126.56C422.458 127.32 422.851 128.433 422.851 129.9V136H421.431V130.04C421.431 128.947 421.158 128.113 420.611 127.54C420.065 126.967 419.285 126.68 418.271 126.68C417.138 126.68 416.238 127.02 415.571 127.7C414.918 128.367 414.591 129.293 414.591 130.48V136H413.171V125.48H414.531V127.42C414.918 126.78 415.451 126.287 416.131 125.94C416.825 125.58 417.625 125.4 418.531 125.4ZM436.486 125.48V134.72C436.486 136.507 436.046 137.827 435.166 138.68C434.299 139.547 432.986 139.98 431.226 139.98C430.252 139.98 429.326 139.833 428.446 139.54C427.579 139.26 426.872 138.867 426.326 138.36L427.046 137.28C427.552 137.733 428.166 138.087 428.886 138.34C429.619 138.593 430.386 138.72 431.186 138.72C432.519 138.72 433.499 138.407 434.126 137.78C434.752 137.167 435.066 136.207 435.066 134.9V133.56C434.626 134.227 434.046 134.733 433.326 135.08C432.619 135.427 431.832 135.6 430.966 135.6C429.979 135.6 429.079 135.387 428.266 134.96C427.466 134.52 426.832 133.913 426.366 133.14C425.912 132.353 425.686 131.467 425.686 130.48C425.686 129.493 425.912 128.613 426.366 127.84C426.832 127.067 427.466 126.467 428.266 126.04C429.066 125.613 429.966 125.4 430.966 125.4C431.859 125.4 432.666 125.58 433.386 125.94C434.106 126.3 434.686 126.82 435.126 127.5V125.48H436.486ZM431.106 134.34C431.866 134.34 432.552 134.18 433.166 133.86C433.779 133.527 434.252 133.067 434.586 132.48C434.932 131.893 435.106 131.227 435.106 130.48C435.106 129.733 434.932 129.073 434.586 128.5C434.252 127.913 433.779 127.46 433.166 127.14C432.566 126.807 431.879 126.64 431.106 126.64C430.346 126.64 429.659 126.8 429.046 127.12C428.446 127.44 427.972 127.893 427.626 128.48C427.292 129.067 427.126 129.733 427.126 130.48C427.126 131.227 427.292 131.893 427.626 132.48C427.972 133.067 428.446 133.527 429.046 133.86C429.659 134.18 430.346 134.34 431.106 134.34ZM454.851 131.18H446.051C446.131 132.273 446.551 133.16 447.311 133.84C448.071 134.507 449.031 134.84 450.191 134.84C450.844 134.84 451.444 134.727 451.991 134.5C452.538 134.26 453.011 133.913 453.411 133.46L454.211 134.38C453.744 134.94 453.158 135.367 452.451 135.66C451.758 135.953 450.991 136.1 450.151 136.1C449.071 136.1 448.111 135.873 447.271 135.42C446.444 134.953 445.798 134.313 445.331 133.5C444.864 132.687 444.631 131.767 444.631 130.74C444.631 129.713 444.851 128.793 445.291 127.98C445.744 127.167 446.358 126.533 447.131 126.08C447.918 125.627 448.798 125.4 449.771 125.4C450.744 125.4 451.618 125.627 452.391 126.08C453.164 126.533 453.771 127.167 454.211 127.98C454.651 128.78 454.871 129.7 454.871 130.74L454.851 131.18ZM449.771 126.62C448.758 126.62 447.904 126.947 447.211 127.6C446.531 128.24 446.144 129.08 446.051 130.12H453.511C453.418 129.08 453.024 128.24 452.331 127.6C451.651 126.947 450.798 126.62 449.771 126.62ZM457.761 121.16H459.181V136H457.761V121.16ZM463.132 125.48H464.552V136H463.132V125.48ZM463.852 123.18C463.559 123.18 463.312 123.08 463.112 122.88C462.912 122.68 462.812 122.44 462.812 122.16C462.812 121.893 462.912 121.66 463.112 121.46C463.312 121.26 463.559 121.16 463.852 121.16C464.146 121.16 464.392 121.26 464.592 121.46C464.792 121.647 464.892 121.873 464.892 122.14C464.892 122.433 464.792 122.68 464.592 122.88C464.392 123.08 464.146 123.18 463.852 123.18ZM474.043 135.36C473.777 135.6 473.443 135.787 473.043 135.92C472.657 136.04 472.25 136.1 471.823 136.1C470.837 136.1 470.077 135.833 469.543 135.3C469.01 134.767 468.743 134.013 468.743 133.04V126.68H466.863V125.48H468.743V123.18H470.163V125.48H473.363V126.68H470.163V132.96C470.163 133.587 470.317 134.067 470.623 134.4C470.943 134.72 471.397 134.88 471.983 134.88C472.277 134.88 472.557 134.833 472.823 134.74C473.103 134.647 473.343 134.513 473.543 134.34L474.043 135.36ZM476.984 133.92C477.29 133.92 477.544 134.027 477.744 134.24C477.944 134.44 478.044 134.693 478.044 135C478.044 135.16 478.017 135.333 477.964 135.52C477.924 135.707 477.857 135.92 477.764 136.16L476.924 138.92H475.964L476.644 136.02C476.43 135.953 476.257 135.833 476.124 135.66C475.99 135.473 475.924 135.253 475.924 135C475.924 134.693 476.024 134.44 476.224 134.24C476.424 134.027 476.677 133.92 476.984 133.92ZM489.116 136.1C488.263 136.1 487.443 135.98 486.656 135.74C485.883 135.487 485.276 135.173 484.836 134.8L485.476 133.68C485.916 134.027 486.47 134.313 487.136 134.54C487.803 134.753 488.496 134.86 489.216 134.86C490.176 134.86 490.883 134.713 491.336 134.42C491.803 134.113 492.036 133.687 492.036 133.14C492.036 132.753 491.91 132.453 491.656 132.24C491.403 132.013 491.083 131.847 490.696 131.74C490.31 131.62 489.796 131.507 489.156 131.4C488.303 131.24 487.616 131.08 487.096 130.92C486.576 130.747 486.13 130.46 485.756 130.06C485.396 129.66 485.216 129.107 485.216 128.4C485.216 127.52 485.583 126.8 486.316 126.24C487.05 125.68 488.07 125.4 489.376 125.4C490.056 125.4 490.736 125.493 491.416 125.68C492.096 125.853 492.656 126.087 493.096 126.38L492.476 127.52C491.61 126.92 490.576 126.62 489.376 126.62C488.47 126.62 487.783 126.78 487.316 127.1C486.863 127.42 486.636 127.84 486.636 128.36C486.636 128.76 486.763 129.08 487.016 129.32C487.283 129.56 487.61 129.74 487.996 129.86C488.383 129.967 488.916 130.08 489.596 130.2C490.436 130.36 491.11 130.52 491.616 130.68C492.123 130.84 492.556 131.113 492.916 131.5C493.276 131.887 493.456 132.42 493.456 133.1C493.456 134.02 493.07 134.753 492.296 135.3C491.536 135.833 490.476 136.1 489.116 136.1ZM505.242 131.18H496.442C496.522 132.273 496.942 133.16 497.702 133.84C498.462 134.507 499.422 134.84 500.582 134.84C501.235 134.84 501.835 134.727 502.382 134.5C502.928 134.26 503.402 133.913 503.802 133.46L504.602 134.38C504.135 134.94 503.548 135.367 502.842 135.66C502.148 135.953 501.382 136.1 500.542 136.1C499.462 136.1 498.502 135.873 497.662 135.42C496.835 134.953 496.188 134.313 495.722 133.5C495.255 132.687 495.022 131.767 495.022 130.74C495.022 129.713 495.242 128.793 495.682 127.98C496.135 127.167 496.748 126.533 497.522 126.08C498.308 125.627 499.188 125.4 500.162 125.4C501.135 125.4 502.008 125.627 502.782 126.08C503.555 126.533 504.162 127.167 504.602 127.98C505.042 128.78 505.262 129.7 505.262 130.74L505.242 131.18ZM500.162 126.62C499.148 126.62 498.295 126.947 497.602 127.6C496.922 128.24 496.535 129.08 496.442 130.12H503.902C503.808 129.08 503.415 128.24 502.722 127.6C502.042 126.947 501.188 126.62 500.162 126.62ZM517.752 121.16V136H516.392V133.92C515.965 134.627 515.399 135.167 514.692 135.54C513.999 135.913 513.212 136.1 512.332 136.1C511.345 136.1 510.452 135.873 509.652 135.42C508.852 134.967 508.225 134.333 507.772 133.52C507.319 132.707 507.092 131.78 507.092 130.74C507.092 129.7 507.319 128.773 507.772 127.96C508.225 127.147 508.852 126.52 509.652 126.08C510.452 125.627 511.345 125.4 512.332 125.4C513.185 125.4 513.952 125.58 514.632 125.94C515.325 126.287 515.892 126.8 516.332 127.48V121.16H517.752ZM512.452 134.84C513.185 134.84 513.845 134.673 514.432 134.34C515.032 133.993 515.499 133.507 515.832 132.88C516.179 132.253 516.352 131.54 516.352 130.74C516.352 129.94 516.179 129.227 515.832 128.6C515.499 127.973 515.032 127.493 514.432 127.16C513.845 126.813 513.185 126.64 512.452 126.64C511.705 126.64 511.032 126.813 510.432 127.16C509.845 127.493 509.379 127.973 509.032 128.6C508.699 129.227 508.532 129.94 508.532 130.74C508.532 131.54 508.699 132.253 509.032 132.88C509.379 133.507 509.845 133.993 510.432 134.34C511.032 134.673 511.705 134.84 512.452 134.84ZM536.541 121.16V136H535.181V133.92C534.754 134.627 534.188 135.167 533.481 135.54C532.788 135.913 532.001 136.1 531.121 136.1C530.134 136.1 529.241 135.873 528.441 135.42C527.641 134.967 527.014 134.333 526.561 133.52C526.108 132.707 525.881 131.78 525.881 130.74C525.881 129.7 526.108 128.773 526.561 127.96C527.014 127.147 527.641 126.52 528.441 126.08C529.241 125.627 530.134 125.4 531.121 125.4C531.974 125.4 532.741 125.58 533.421 125.94C534.114 126.287 534.681 126.8 535.121 127.48V121.16H536.541ZM531.241 134.84C531.974 134.84 532.634 134.673 533.221 134.34C533.821 133.993 534.288 133.507 534.621 132.88C534.968 132.253 535.141 131.54 535.141 130.74C535.141 129.94 534.968 129.227 534.621 128.6C534.288 127.973 533.821 127.493 533.221 127.16C532.634 126.813 531.974 126.64 531.241 126.64C530.494 126.64 529.821 126.813 529.221 127.16C528.634 127.493 528.168 127.973 527.821 128.6C527.488 129.227 527.321 129.94 527.321 130.74C527.321 131.54 527.488 132.253 527.821 132.88C528.168 133.507 528.634 133.993 529.221 134.34C529.821 134.673 530.494 134.84 531.241 134.84ZM544.796 136.1C543.782 136.1 542.869 135.873 542.056 135.42C541.242 134.953 540.602 134.313 540.136 133.5C539.669 132.687 539.436 131.767 539.436 130.74C539.436 129.713 539.669 128.793 540.136 127.98C540.602 127.167 541.242 126.533 542.056 126.08C542.869 125.627 543.782 125.4 544.796 125.4C545.809 125.4 546.722 125.627 547.536 126.08C548.349 126.533 548.982 127.167 549.436 127.98C549.902 128.793 550.136 129.713 550.136 130.74C550.136 131.767 549.902 132.687 549.436 133.5C548.982 134.313 548.349 134.953 547.536 135.42C546.722 135.873 545.809 136.1 544.796 136.1ZM544.796 134.84C545.542 134.84 546.209 134.673 546.796 134.34C547.396 133.993 547.862 133.507 548.196 132.88C548.529 132.253 548.696 131.54 548.696 130.74C548.696 129.94 548.529 129.227 548.196 128.6C547.862 127.973 547.396 127.493 546.796 127.16C546.209 126.813 545.542 126.64 544.796 126.64C544.049 126.64 543.376 126.813 542.776 127.16C542.189 127.493 541.722 127.973 541.376 128.6C541.042 129.227 540.876 129.94 540.876 130.74C540.876 131.54 541.042 132.253 541.376 132.88C541.722 133.507 542.189 133.993 542.776 134.34C543.376 134.673 544.049 134.84 544.796 134.84ZM221.14 155.18H212.34C212.42 156.273 212.84 157.16 213.6 157.84C214.36 158.507 215.32 158.84 216.48 158.84C217.133 158.84 217.733 158.727 218.28 158.5C218.827 158.26 219.3 157.913 219.7 157.46L220.5 158.38C220.033 158.94 219.447 159.367 218.74 159.66C218.047 159.953 217.28 160.1 216.44 160.1C215.36 160.1 214.4 159.873 213.56 159.42C212.733 158.953 212.087 158.313 211.62 157.5C211.153 156.687 210.92 155.767 210.92 154.74C210.92 153.713 211.14 152.793 211.58 151.98C212.033 151.167 212.647 150.533 213.42 150.08C214.207 149.627 215.087 149.4 216.06 149.4C217.033 149.4 217.907 149.627 218.68 150.08C219.453 150.533 220.06 151.167 220.5 151.98C220.94 152.78 221.16 153.7 221.16 154.74L221.14 155.18ZM216.06 150.62C215.047 150.62 214.193 150.947 213.5 151.6C212.82 152.24 212.433 153.08 212.34 154.12H219.8C219.707 153.08 219.313 152.24 218.62 151.6C217.94 150.947 217.087 150.62 216.06 150.62ZM224.05 149.48H225.47V160H224.05V149.48ZM224.77 147.18C224.477 147.18 224.23 147.08 224.03 146.88C223.83 146.68 223.73 146.44 223.73 146.16C223.73 145.893 223.83 145.66 224.03 145.46C224.23 145.26 224.477 145.16 224.77 145.16C225.064 145.16 225.31 145.26 225.51 145.46C225.71 145.647 225.81 145.873 225.81 146.14C225.81 146.433 225.71 146.68 225.51 146.88C225.31 147.08 225.064 147.18 224.77 147.18ZM238.901 149.48V160H237.541V158.08C237.168 158.72 236.655 159.22 236.001 159.58C235.348 159.927 234.601 160.1 233.761 160.1C232.388 160.1 231.301 159.72 230.501 158.96C229.715 158.187 229.321 157.06 229.321 155.58V149.48H230.741V155.44C230.741 156.547 231.015 157.387 231.561 157.96C232.108 158.533 232.888 158.82 233.901 158.82C235.008 158.82 235.881 158.487 236.521 157.82C237.161 157.14 237.481 156.2 237.481 155V149.48H238.901ZM245.698 160.1C244.845 160.1 244.025 159.98 243.238 159.74C242.465 159.487 241.858 159.173 241.418 158.8L242.058 157.68C242.498 158.027 243.052 158.313 243.718 158.54C244.385 158.753 245.078 158.86 245.798 158.86C246.758 158.86 247.465 158.713 247.918 158.42C248.385 158.113 248.618 157.687 248.618 157.14C248.618 156.753 248.492 156.453 248.238 156.24C247.985 156.013 247.665 155.847 247.278 155.74C246.892 155.62 246.378 155.507 245.738 155.4C244.885 155.24 244.198 155.08 243.678 154.92C243.158 154.747 242.712 154.46 242.338 154.06C241.978 153.66 241.798 153.107 241.798 152.4C241.798 151.52 242.165 150.8 242.898 150.24C243.632 149.68 244.652 149.4 245.958 149.4C246.638 149.4 247.318 149.493 247.998 149.68C248.678 149.853 249.238 150.087 249.678 150.38L249.058 151.52C248.192 150.92 247.158 150.62 245.958 150.62C245.052 150.62 244.365 150.78 243.898 151.1C243.445 151.42 243.218 151.84 243.218 152.36C243.218 152.76 243.345 153.08 243.598 153.32C243.865 153.56 244.192 153.74 244.578 153.86C244.965 153.967 245.498 154.08 246.178 154.2C247.018 154.36 247.692 154.52 248.198 154.68C248.705 154.84 249.138 155.113 249.498 155.5C249.858 155.887 250.038 156.42 250.038 157.1C250.038 158.02 249.652 158.753 248.878 159.3C248.118 159.833 247.058 160.1 245.698 160.1ZM265.784 149.4C267.104 149.4 268.137 149.78 268.884 150.54C269.644 151.3 270.024 152.42 270.024 153.9V160H268.604V154.04C268.604 152.947 268.337 152.113 267.804 151.54C267.284 150.967 266.544 150.68 265.584 150.68C264.49 150.68 263.63 151.02 263.004 151.7C262.377 152.367 262.064 153.293 262.064 154.48V160H260.644V154.04C260.644 152.947 260.377 152.113 259.844 151.54C259.324 150.967 258.577 150.68 257.604 150.68C256.524 150.68 255.664 151.02 255.024 151.7C254.397 152.367 254.084 153.293 254.084 154.48V160H252.664V149.48H254.024V151.4C254.397 150.76 254.917 150.267 255.584 149.92C256.25 149.573 257.017 149.4 257.884 149.4C258.764 149.4 259.524 149.587 260.164 149.96C260.817 150.333 261.304 150.887 261.624 151.62C262.01 150.927 262.564 150.387 263.284 150C264.017 149.6 264.85 149.4 265.784 149.4ZM278.214 160.1C277.2 160.1 276.287 159.873 275.474 159.42C274.66 158.953 274.02 158.313 273.554 157.5C273.087 156.687 272.854 155.767 272.854 154.74C272.854 153.713 273.087 152.793 273.554 151.98C274.02 151.167 274.66 150.533 275.474 150.08C276.287 149.627 277.2 149.4 278.214 149.4C279.227 149.4 280.14 149.627 280.954 150.08C281.767 150.533 282.4 151.167 282.854 151.98C283.32 152.793 283.554 153.713 283.554 154.74C283.554 155.767 283.32 156.687 282.854 157.5C282.4 158.313 281.767 158.953 280.954 159.42C280.14 159.873 279.227 160.1 278.214 160.1ZM278.214 158.84C278.96 158.84 279.627 158.673 280.214 158.34C280.814 157.993 281.28 157.507 281.614 156.88C281.947 156.253 282.114 155.54 282.114 154.74C282.114 153.94 281.947 153.227 281.614 152.6C281.28 151.973 280.814 151.493 280.214 151.16C279.627 150.813 278.96 150.64 278.214 150.64C277.467 150.64 276.794 150.813 276.194 151.16C275.607 151.493 275.14 151.973 274.794 152.6C274.46 153.227 274.294 153.94 274.294 154.74C274.294 155.54 274.46 156.253 274.794 156.88C275.14 157.507 275.607 157.993 276.194 158.34C276.794 158.673 277.467 158.84 278.214 158.84ZM296.053 145.16V160H294.693V157.92C294.266 158.627 293.699 159.167 292.993 159.54C292.299 159.913 291.513 160.1 290.633 160.1C289.646 160.1 288.753 159.873 287.953 159.42C287.153 158.967 286.526 158.333 286.073 157.52C285.619 156.707 285.393 155.78 285.393 154.74C285.393 153.7 285.619 152.773 286.073 151.96C286.526 151.147 287.153 150.52 287.953 150.08C288.753 149.627 289.646 149.4 290.633 149.4C291.486 149.4 292.253 149.58 292.933 149.94C293.626 150.287 294.193 150.8 294.633 151.48V145.16H296.053ZM290.753 158.84C291.486 158.84 292.146 158.673 292.733 158.34C293.333 157.993 293.799 157.507 294.133 156.88C294.479 156.253 294.653 155.54 294.653 154.74C294.653 153.94 294.479 153.227 294.133 152.6C293.799 151.973 293.333 151.493 292.733 151.16C292.146 150.813 291.486 150.64 290.753 150.64C290.006 150.64 289.333 150.813 288.733 151.16C288.146 151.493 287.679 151.973 287.333 152.6C286.999 153.227 286.833 153.94 286.833 154.74C286.833 155.54 286.999 156.253 287.333 156.88C287.679 157.507 288.146 157.993 288.733 158.34C289.333 158.673 290.006 158.84 290.753 158.84ZM310.782 159.36C310.515 159.6 310.182 159.787 309.782 159.92C309.395 160.04 308.988 160.1 308.562 160.1C307.575 160.1 306.815 159.833 306.282 159.3C305.748 158.767 305.482 158.013 305.482 157.04V150.68H303.602V149.48H305.482V147.18H306.902V149.48H310.102V150.68H306.902V156.96C306.902 157.587 307.055 158.067 307.362 158.4C307.682 158.72 308.135 158.88 308.722 158.88C309.015 158.88 309.295 158.833 309.562 158.74C309.842 158.647 310.082 158.513 310.282 158.34L310.782 159.36ZM322.156 155.18H313.356C313.436 156.273 313.856 157.16 314.616 157.84C315.376 158.507 316.336 158.84 317.496 158.84C318.149 158.84 318.749 158.727 319.296 158.5C319.842 158.26 320.316 157.913 320.716 157.46L321.516 158.38C321.049 158.94 320.462 159.367 319.756 159.66C319.062 159.953 318.296 160.1 317.456 160.1C316.376 160.1 315.416 159.873 314.576 159.42C313.749 158.953 313.102 158.313 312.636 157.5C312.169 156.687 311.936 155.767 311.936 154.74C311.936 153.713 312.156 152.793 312.596 151.98C313.049 151.167 313.662 150.533 314.436 150.08C315.222 149.627 316.102 149.4 317.076 149.4C318.049 149.4 318.922 149.627 319.696 150.08C320.469 150.533 321.076 151.167 321.516 151.98C321.956 152.78 322.176 153.7 322.176 154.74L322.156 155.18ZM317.076 150.62C316.062 150.62 315.209 150.947 314.516 151.6C313.836 152.24 313.449 153.08 313.356 154.12H320.816C320.722 153.08 320.329 152.24 319.636 151.6C318.956 150.947 318.102 150.62 317.076 150.62ZM338.186 149.4C339.506 149.4 340.539 149.78 341.286 150.54C342.046 151.3 342.426 152.42 342.426 153.9V160H341.006V154.04C341.006 152.947 340.739 152.113 340.206 151.54C339.686 150.967 338.946 150.68 337.986 150.68C336.893 150.68 336.033 151.02 335.406 151.7C334.779 152.367 334.466 153.293 334.466 154.48V160H333.046V154.04C333.046 152.947 332.779 152.113 332.246 151.54C331.726 150.967 330.979 150.68 330.006 150.68C328.926 150.68 328.066 151.02 327.426 151.7C326.799 152.367 326.486 153.293 326.486 154.48V160H325.066V149.48H326.426V151.4C326.799 150.76 327.319 150.267 327.986 149.92C328.653 149.573 329.419 149.4 330.286 149.4C331.166 149.4 331.926 149.587 332.566 149.96C333.219 150.333 333.706 150.887 334.026 151.62C334.413 150.927 334.966 150.387 335.686 150C336.419 149.6 337.253 149.4 338.186 149.4ZM351.697 149.4C352.684 149.4 353.577 149.627 354.377 150.08C355.177 150.52 355.804 151.147 356.257 151.96C356.71 152.773 356.937 153.7 356.937 154.74C356.937 155.793 356.71 156.727 356.257 157.54C355.804 158.353 355.177 158.987 354.377 159.44C353.59 159.88 352.697 160.1 351.697 160.1C350.844 160.1 350.07 159.927 349.377 159.58C348.697 159.22 348.137 158.7 347.697 158.02V163.88H346.277V149.48H347.637V151.56C348.064 150.867 348.624 150.333 349.317 149.96C350.024 149.587 350.817 149.4 351.697 149.4ZM351.597 158.84C352.33 158.84 352.997 158.673 353.597 158.34C354.197 157.993 354.664 157.507 354.997 156.88C355.344 156.253 355.517 155.54 355.517 154.74C355.517 153.94 355.344 153.233 354.997 152.62C354.664 151.993 354.197 151.507 353.597 151.16C352.997 150.813 352.33 150.64 351.597 150.64C350.85 150.64 350.177 150.813 349.577 151.16C348.99 151.507 348.524 151.993 348.177 152.62C347.844 153.233 347.677 153.94 347.677 154.74C347.677 155.54 347.844 156.253 348.177 156.88C348.524 157.507 348.99 157.993 349.577 158.34C350.177 158.673 350.85 158.84 351.597 158.84ZM364.132 160.1C363.118 160.1 362.205 159.873 361.392 159.42C360.578 158.953 359.938 158.313 359.472 157.5C359.005 156.687 358.772 155.767 358.772 154.74C358.772 153.713 359.005 152.793 359.472 151.98C359.938 151.167 360.578 150.533 361.392 150.08C362.205 149.627 363.118 149.4 364.132 149.4C365.145 149.4 366.058 149.627 366.872 150.08C367.685 150.533 368.318 151.167 368.772 151.98C369.238 152.793 369.472 153.713 369.472 154.74C369.472 155.767 369.238 156.687 368.772 157.5C368.318 158.313 367.685 158.953 366.872 159.42C366.058 159.873 365.145 160.1 364.132 160.1ZM364.132 158.84C364.878 158.84 365.545 158.673 366.132 158.34C366.732 157.993 367.198 157.507 367.532 156.88C367.865 156.253 368.032 155.54 368.032 154.74C368.032 153.94 367.865 153.227 367.532 152.6C367.198 151.973 366.732 151.493 366.132 151.16C365.545 150.813 364.878 150.64 364.132 150.64C363.385 150.64 362.712 150.813 362.112 151.16C361.525 151.493 361.058 151.973 360.712 152.6C360.378 153.227 360.212 153.94 360.212 154.74C360.212 155.54 360.378 156.253 360.712 156.88C361.058 157.507 361.525 157.993 362.112 158.34C362.712 158.673 363.385 158.84 364.132 158.84ZM373.731 151.54C374.064 150.833 374.557 150.3 375.211 149.94C375.877 149.58 376.697 149.4 377.671 149.4V150.78L377.331 150.76C376.224 150.76 375.357 151.1 374.731 151.78C374.104 152.46 373.791 153.413 373.791 154.64V160H372.371V149.48H373.731V151.54ZM385.632 149.48H387.052V160H385.632V149.48ZM386.352 147.18C386.059 147.18 385.812 147.08 385.612 146.88C385.412 146.68 385.312 146.44 385.312 146.16C385.312 145.893 385.412 145.66 385.612 145.46C385.812 145.26 386.059 145.16 386.352 145.16C386.646 145.16 386.892 145.26 387.092 145.46C387.292 145.647 387.392 145.873 387.392 146.14C387.392 146.433 387.292 146.68 387.092 146.88C386.892 147.08 386.646 147.18 386.352 147.18ZM396.363 149.4C397.683 149.4 398.73 149.787 399.503 150.56C400.29 151.32 400.683 152.433 400.683 153.9V160H399.263V154.04C399.263 152.947 398.99 152.113 398.443 151.54C397.897 150.967 397.117 150.68 396.103 150.68C394.97 150.68 394.07 151.02 393.403 151.7C392.75 152.367 392.423 153.293 392.423 154.48V160H391.003V149.48H392.363V151.42C392.75 150.78 393.283 150.287 393.963 149.94C394.657 149.58 395.457 149.4 396.363 149.4ZM408.938 160.1C407.898 160.1 406.964 159.873 406.138 159.42C405.324 158.967 404.684 158.333 404.218 157.52C403.751 156.693 403.518 155.767 403.518 154.74C403.518 153.713 403.751 152.793 404.218 151.98C404.684 151.167 405.324 150.533 406.138 150.08C406.964 149.627 407.898 149.4 408.938 149.4C409.844 149.4 410.651 149.58 411.358 149.94C412.078 150.287 412.644 150.8 413.058 151.48L411.998 152.2C411.651 151.68 411.211 151.293 410.678 151.04C410.144 150.773 409.564 150.64 408.938 150.64C408.178 150.64 407.491 150.813 406.878 151.16C406.278 151.493 405.804 151.973 405.458 152.6C405.124 153.227 404.958 153.94 404.958 154.74C404.958 155.553 405.124 156.273 405.458 156.9C405.804 157.513 406.278 157.993 406.878 158.34C407.491 158.673 408.178 158.84 408.938 158.84C409.564 158.84 410.144 158.713 410.678 158.46C411.211 158.207 411.651 157.82 411.998 157.3L413.058 158.02C412.644 158.7 412.078 159.22 411.358 159.58C410.638 159.927 409.831 160.1 408.938 160.1ZM415.847 149.48H417.267V160H415.847V149.48ZM416.567 147.18C416.274 147.18 416.027 147.08 415.827 146.88C415.627 146.68 415.527 146.44 415.527 146.16C415.527 145.893 415.627 145.66 415.827 145.46C416.027 145.26 416.274 145.16 416.567 145.16C416.861 145.16 417.107 145.26 417.307 145.46C417.507 145.647 417.607 145.873 417.607 146.14C417.607 146.433 417.507 146.68 417.307 146.88C417.107 147.08 416.861 147.18 416.567 147.18ZM430.818 145.16V160H429.458V157.92C429.032 158.627 428.465 159.167 427.758 159.54C427.065 159.913 426.278 160.1 425.398 160.1C424.412 160.1 423.518 159.873 422.718 159.42C421.918 158.967 421.292 158.333 420.838 157.52C420.385 156.707 420.158 155.78 420.158 154.74C420.158 153.7 420.385 152.773 420.838 151.96C421.292 151.147 421.918 150.52 422.718 150.08C423.518 149.627 424.412 149.4 425.398 149.4C426.252 149.4 427.018 149.58 427.698 149.94C428.392 150.287 428.958 150.8 429.398 151.48V145.16H430.818ZM425.518 158.84C426.252 158.84 426.912 158.673 427.498 158.34C428.098 157.993 428.565 157.507 428.898 156.88C429.245 156.253 429.418 155.54 429.418 154.74C429.418 153.94 429.245 153.227 428.898 152.6C428.565 151.973 428.098 151.493 427.498 151.16C426.912 150.813 426.252 150.64 425.518 150.64C424.772 150.64 424.098 150.813 423.498 151.16C422.912 151.493 422.445 151.973 422.098 152.6C421.765 153.227 421.598 153.94 421.598 154.74C421.598 155.54 421.765 156.253 422.098 156.88C422.445 157.507 422.912 157.993 423.498 158.34C424.098 158.673 424.772 158.84 425.518 158.84ZM434.773 149.48H436.193V160H434.773V149.48ZM435.493 147.18C435.2 147.18 434.953 147.08 434.753 146.88C434.553 146.68 434.453 146.44 434.453 146.16C434.453 145.893 434.553 145.66 434.753 145.46C434.953 145.26 435.2 145.16 435.493 145.16C435.786 145.16 436.033 145.26 436.233 145.46C436.433 145.647 436.533 145.873 436.533 146.14C436.533 146.433 436.433 146.68 436.233 146.88C436.033 147.08 435.786 147.18 435.493 147.18ZM449.744 145.16V160H448.384V157.92C447.957 158.627 447.391 159.167 446.684 159.54C445.991 159.913 445.204 160.1 444.324 160.1C443.337 160.1 442.444 159.873 441.644 159.42C440.844 158.967 440.217 158.333 439.764 157.52C439.311 156.707 439.084 155.78 439.084 154.74C439.084 153.7 439.311 152.773 439.764 151.96C440.217 151.147 440.844 150.52 441.644 150.08C442.444 149.627 443.337 149.4 444.324 149.4C445.177 149.4 445.944 149.58 446.624 149.94C447.317 150.287 447.884 150.8 448.324 151.48V145.16H449.744ZM444.444 158.84C445.177 158.84 445.837 158.673 446.424 158.34C447.024 157.993 447.491 157.507 447.824 156.88C448.171 156.253 448.344 155.54 448.344 154.74C448.344 153.94 448.171 153.227 447.824 152.6C447.491 151.973 447.024 151.493 446.424 151.16C445.837 150.813 445.177 150.64 444.444 150.64C443.697 150.64 443.024 150.813 442.424 151.16C441.837 151.493 441.371 151.973 441.024 152.6C440.691 153.227 440.524 153.94 440.524 154.74C440.524 155.54 440.691 156.253 441.024 156.88C441.371 157.507 441.837 157.993 442.424 158.34C443.024 158.673 443.697 158.84 444.444 158.84ZM463.179 149.48V160H461.819V158.08C461.445 158.72 460.932 159.22 460.279 159.58C459.625 159.927 458.879 160.1 458.039 160.1C456.665 160.1 455.579 159.72 454.779 158.96C453.992 158.187 453.599 157.06 453.599 155.58V149.48H455.019V155.44C455.019 156.547 455.292 157.387 455.839 157.96C456.385 158.533 457.165 158.82 458.179 158.82C459.285 158.82 460.159 158.487 460.799 157.82C461.439 157.14 461.759 156.2 461.759 155V149.48H463.179ZM472.516 149.4C473.836 149.4 474.882 149.787 475.656 150.56C476.442 151.32 476.836 152.433 476.836 153.9V160H475.416V154.04C475.416 152.947 475.142 152.113 474.596 151.54C474.049 150.967 473.269 150.68 472.256 150.68C471.122 150.68 470.222 151.02 469.556 151.7C468.902 152.367 468.576 153.293 468.576 154.48V160H467.156V149.48H468.516V151.42C468.902 150.78 469.436 150.287 470.116 149.94C470.809 149.58 471.609 149.4 472.516 149.4ZM486.231 159.36C485.964 159.6 485.631 159.787 485.231 159.92C484.844 160.04 484.438 160.1 484.011 160.1C483.024 160.1 482.264 159.833 481.731 159.3C481.198 158.767 480.931 158.013 480.931 157.04V150.68H479.051V149.48H480.931V147.18H482.351V149.48H485.551V150.68H482.351V156.96C482.351 157.587 482.504 158.067 482.811 158.4C483.131 158.72 483.584 158.88 484.171 158.88C484.464 158.88 484.744 158.833 485.011 158.74C485.291 158.647 485.531 158.513 485.731 158.34L486.231 159.36ZM489.151 160.1C488.858 160.1 488.605 159.993 488.391 159.78C488.191 159.567 488.091 159.307 488.091 159C488.091 158.693 488.191 158.44 488.391 158.24C488.605 158.027 488.858 157.92 489.151 157.92C489.445 157.92 489.698 158.027 489.911 158.24C490.125 158.44 490.231 158.693 490.231 159C490.231 159.307 490.125 159.567 489.911 159.78C489.698 159.993 489.445 160.1 489.151 160.1Z" fill="#D3D3D3"/>
</svg>
