<svg width="53" height="53" viewBox="0 0 53 53" fill="none" xmlns="http://www.w3.org/2000/svg">
<path fill-rule="evenodd" clip-rule="evenodd" d="M26.5 53C11.8645 53 0 41.1355 0 26.5C0 11.8645 11.8645 0 26.5 0C41.1355 0 53 11.8645 53 26.5C53 41.1355 41.1355 53 26.5 53ZM26.5 48.1818C38.4745 48.1818 48.1818 38.4745 48.1818 26.5C48.1818 14.5255 38.4745 4.81818 26.5 4.81818C14.5255 4.81818 4.81818 14.5255 4.81818 26.5C4.81818 38.4745 14.5255 48.1818 26.5 48.1818ZM34.4331 17.5691L21.682 30.3202L16.1582 24.7964L12.7512 28.2034L21.682 37.1341L37.84 20.9761L34.4331 17.5691Z" fill="#201F30"/>
</svg>
