<svg width="49" height="28" viewBox="0 0 49 28" fill="none" xmlns="http://www.w3.org/2000/svg">
<path fill-rule="evenodd" clip-rule="evenodd" d="M43.0648 1.92297C43.581 1.4155 43.839 1.16176 44.1147 1.02168C44.6841 0.732408 45.3573 0.732408 45.9267 1.02168C46.2023 1.16176 46.4604 1.4155 46.9766 1.92297C47.5087 2.44618 47.7748 2.70778 47.9209 2.98811C48.2227 3.5673 48.2227 4.25737 47.9209 4.83656C47.7748 5.11688 47.5087 5.37849 46.9766 5.9017L26.7294 25.8081C25.9561 26.5684 25.5695 26.9485 25.1263 27.0947C24.7196 27.2288 24.2804 27.2288 23.8737 27.0947C23.4305 26.9485 23.0439 26.5684 22.2706 25.8081L2.02342 5.9017C1.49125 5.37849 1.22517 5.11688 1.07909 4.83656C0.777286 4.25737 0.777287 3.5673 1.07909 2.98811C1.22517 2.70778 1.49125 2.44618 2.02342 1.92297C2.53958 1.4155 2.79765 1.16176 3.07335 1.02168C3.64268 0.732408 4.31593 0.732408 4.88526 1.02168C5.16095 1.16176 5.41903 1.4155 5.93519 1.92297L22.2706 17.9834C23.0439 18.7437 23.4305 19.1239 23.8737 19.27C24.2804 19.4041 24.7196 19.4041 25.1263 19.27C25.5695 19.1239 25.9561 18.7437 26.7294 17.9834L43.0648 1.92297Z" fill="white"/>
</svg>
