<svg width="20" height="24" viewBox="0 0 20 24" fill="none" xmlns="http://www.w3.org/2000/svg">
<path fill-rule="evenodd" clip-rule="evenodd" d="M10 23.2984L10.7308 22.6991C16.8763 17.6595 20 13.2593 20 9.3913C20 3.91373 15.4477 0 10 0C4.55228 0 0 3.91373 0 9.3913C0 13.2593 3.12368 17.6595 9.26919 22.6991L10 23.2984ZM10 20.5183C4.78512 16.1045 2.22222 12.3644 2.22222 9.3913C2.22222 5.1095 5.7379 2.08696 10 2.08696C14.2621 2.08696 17.7778 5.1095 17.7778 9.3913C17.7778 12.3644 15.2149 16.1045 10 20.5183ZM10 4.17391C13.0682 4.17391 15.5556 6.50982 15.5556 9.3913C15.5556 12.2728 13.0682 14.6087 10 14.6087C6.93176 14.6087 4.44444 12.2728 4.44444 9.3913C4.44444 6.50982 6.93176 4.17391 10 4.17391ZM6.66667 9.3913C6.66667 7.66242 8.15906 6.26087 10 6.26087C11.841 6.26087 13.3333 7.66242 13.3333 9.3913C13.3333 11.1202 11.841 12.5217 10 12.5217C8.15906 12.5217 6.66667 11.1202 6.66667 9.3913Z" fill="#F2F2F2"/>
</svg>
